<?xml version="1.0" encoding="utf-8"?>
<!-- Generator: Adobe Illustrator 16.0.0, SVG Export Plug-In . SVG Version: 6.00 Build 0)  -->
<!DOCTYPE svg PUBLIC "-//W3C//DTD SVG 1.1//EN" "http://www.w3.org/Graphics/SVG/1.1/DTD/svg11.dtd">
<svg version="1.1" id="图层_1" xmlns="http://www.w3.org/2000/svg" xmlns:xlink="http://www.w3.org/1999/xlink" x="0px" y="0px"
	 width="595.28px" height="841.89px" viewBox="0 0 595.28 841.89" enable-background="new 0 0 595.28 841.89" xml:space="preserve">
<path fill="#FFFFFF" stroke="#000000" stroke-width="12" stroke-miterlimit="10" d="M461.774,567.943
	C419.333,614.665,358.092,644,290,644c-69.055,0-131.063-30.171-173.562-78.049"/>
<path fill="#FFFFFF" stroke="#000000" stroke-width="12" stroke-miterlimit="10" d="M88.601,527.241
	C69.131,493.289,58,453.944,58,412c0-128.13,103.87-232,232-232s232,103.87,232,232c0,42.841-11.612,82.971-31.86,117.411"/>
<path fill="#FFFFFF" stroke="#000000" stroke-width="4" stroke-miterlimit="10" d="M143.701,487.291
	c-12.93-23.678-20.277-51.839-20.277-80.716c0-91.997,74.579-166.576,166.576-166.576s166.576,74.579,166.576,166.576
	c0,28.372-7.094,59.085-19.604,82.466"/>
<g>
	<path d="M237.996,295.19c-2.665,1.306-4.215,3.956-5.159,6.731c-0.931,2.802-1.271,5.784-1.395,8.745
		c-0.031,0.742-0.04,1.485-0.037,2.228l0.087,2.235c0.067,1.495,0.104,2.995,0.196,4.485c0.229,2.973,0.483,5.936,0.901,8.892
		c0.333,2.961,0.912,5.89,1.417,8.819l0.911,4.368c0.295,1.456,0.691,2.892,1.031,4.336c0.337,1.446,0.716,2.881,1.123,4.309
		c0.402,1.429,0.765,2.866,1.226,4.277l1.31,4.249l1.416,4.213c1.015,2.784,2.005,5.573,3.12,8.316
		c0.525,1.383,1.121,2.739,1.698,4.101c0.566,1.367,1.174,2.716,1.797,4.058c0.604,1.35,1.232,2.688,1.893,4.013
		c0.642,1.332,1.295,2.658,1.987,3.966c0.674,1.316,1.359,2.625,2.08,3.916c0.701,1.302,1.422,2.591,2.17,3.866
		c1.463,2.567,3.018,5.081,4.603,7.571c1.596,2.483,3.24,4.935,4.956,7.332c1.703,2.406,3.474,4.76,5.302,7.059
		c1.813,2.278,3.745,4.59,5.639,6.608l-3.664-0.649l9.914-5.226l-1.805,3.055c-0.333-6.018-0.696-12.038-1.088-18.056
		c-0.187-3.011-0.401-6.016-0.635-9.017l-0.654-9.007l-0.311-4.503l-0.385-4.445c-0.265-2.962-0.503-5.926-0.715-8.892l-0.042-0.556
		c-0.001-0.099-0.04-0.35-0.058-0.518l-0.137-1.124l-0.296-2.141c-0.209-1.43-0.426-2.889-0.676-4.334
		c-0.489-2.898-1.099-5.785-1.704-8.675c-0.626-2.886-1.311-5.761-2.027-8.63c-0.694-2.876-1.507-5.718-2.35-8.553
		c-1.675-5.671-3.641-11.263-6.123-16.624c-1.269-2.661-2.655-5.271-4.273-7.731c-1.612-2.461-3.439-4.789-5.578-6.796
		c-2.126-2.011-4.575-3.709-7.308-4.773l-1.025-0.399l-1.063-0.275l-1.067-0.278l-1.093-0.135l-1.096-0.134l-0.593-0.071
		c-0.173-0.009-0.434-0.101-0.643-0.156c-0.204-0.078-0.423-0.184-0.563-0.265c-0.155-0.086-0.199-0.085-0.312-0.086
		c-0.252,0.029-0.602,0.18-0.928,0.319L237.996,295.19z M237.619,294.485c0.362-0.163,0.7-0.354,1.195-0.436
		c0.268-0.041,0.596,0.051,0.774,0.15c0.191,0.099,0.317,0.148,0.466,0.202c0.543,0.156,1.389,0.148,2.148,0.237l1.159,0.097
		l1.141,0.227l1.144,0.229l1.108,0.358c2.965,0.953,5.692,2.552,8.148,4.455c2.443,1.922,4.696,4.102,6.672,6.495
		c1.986,2.384,3.841,4.882,5.528,7.486c1.667,2.612,3.222,5.296,4.665,8.038c1.407,2.754,2.725,5.556,3.942,8.398
		c2.365,5.708,4.396,11.549,5.964,17.522c0.804,2.981,1.468,6,2.083,9.038c0.301,1.523,0.585,3.042,0.833,4.596l0.335,2.344
		l0.143,1.123c0.024,0.208,0.048,0.329,0.071,0.607l0.046,0.573c0.258,3.054,0.489,6.11,0.694,9.169l0.319,4.585l0.166,4.542
		l0.297,9.083c0.1,3.029,0.181,6.055,0.232,9.078l0.398,18.145l0.048,2.159l-1.853,0.896l-10.086,4.885l-2.168,1.05l-1.495-1.7
		c-2.128-2.418-3.956-4.773-5.797-7.238c-1.822-2.449-3.574-4.939-5.25-7.477c-1.689-2.529-3.3-5.105-4.859-7.711
		c-1.548-2.612-3.061-5.244-4.479-7.926c-0.725-1.332-1.422-2.679-2.099-4.036c-0.697-1.347-1.356-2.712-2.003-4.083
		c-0.666-1.362-1.292-2.743-1.906-4.128c-0.632-1.377-1.231-2.769-1.807-4.171c-0.593-1.394-1.17-2.794-1.706-4.212
		c-0.546-1.413-1.11-2.818-1.604-4.251c-1.046-2.842-1.989-5.722-2.874-8.616l-1.245-4.366c-0.397-1.46-0.753-2.932-1.112-4.4
		c-0.379-1.463-0.659-2.952-0.977-4.43c-0.319-1.477-0.625-2.956-0.86-4.45c-0.241-1.492-0.537-2.972-0.732-4.47l-0.606-4.485
		c-0.308-3.001-0.655-5.994-0.812-9.002c-0.258-2.997-0.276-6.018-0.405-9.022c-0.031-1.5-0.007-2.996-0.013-4.494
		c0-1.492-0.01-3.014,0.077-4.516c0.152-3.013,0.604-6.023,1.518-8.925c0.456-1.449,1.104-2.856,1.979-4.128
		c0.218-0.319,0.436-0.639,0.71-0.918c0.273-0.28,0.49-0.6,0.818-0.842c0.309-0.246,0.612-0.539,0.932-0.741l0.964-0.576
		L237.619,294.485z"/>
</g>
<g>
	<circle fill="#FFFFFF" cx="286.5" cy="445" r="9.5"/>
	<path d="M296.399,445.021c0,0-0.023,0.231-0.067,0.667c-0.048,0.422-0.143,1.131-0.356,1.935c-0.222,0.813-0.517,1.807-1.071,2.884
		c-0.538,1.079-1.313,2.275-2.475,3.368c-1.162,1.075-2.75,2.018-4.643,2.436c-0.235,0.057-0.476,0.076-0.719,0.114l-0.366,0.05
		l-0.185,0.024l-0.258,0.005c-0.43,0.008-0.767,0.058-1.387-0.006c-1.153-0.07-2.113-0.308-3.173-0.667
		c-1.034-0.365-2.022-0.912-2.961-1.57c-0.931-0.672-1.753-1.518-2.48-2.458c-0.711-0.955-1.284-2.032-1.718-3.18
		c-0.417-1.155-0.65-2.381-0.74-3.622l0.003-0.206l-0.001-0.044l-0.002-0.087l-0.006-0.176l-0.011-0.351
		c0.001-0.134-0.017-0.195-0.001-0.389l0.041-0.53c0.053-0.745,0.177-1.343,0.29-1.97c0.291-1.236,0.733-2.449,1.354-3.575
		c1.237-2.247,3.19-4.123,5.495-5.163c1.152-0.5,2.359-0.86,3.564-0.959c0.598-0.091,1.195-0.056,1.777-0.055l0.414,0.012
		l0.152,0.025l0.303,0.052l0.664,0.116c1.34,0.284,2.304,0.661,3.201,1.222c0.904,0.519,1.65,1.2,2.285,1.872
		c1.242,1.402,1.949,2.896,2.365,4.188c0.433,1.29,0.569,2.41,0.669,3.29c0.089,0.887,0.08,1.567,0.071,2.026
		C296.409,444.756,296.4,445,296.4,445L296.399,445.021z M295.6,445c0,0-0.033-0.222-0.095-0.637
		c-0.018-0.208-0.081-0.459-0.18-0.746c-0.076-0.29-0.202-0.613-0.385-0.954c-0.344-0.681-0.9-1.449-1.74-2.051
		c-0.833-0.601-1.882-1.045-2.968-1.204c-0.547-0.071-1.075-0.116-1.595-0.102c-0.5-0.014-1.079,0.06-1.323,0.122l-0.542,0.034
		l-0.307,0.021l-0.154,0.011c-0.187-0.004,0.231,0.007,0.185,0.007l-0.011,0.002l-0.022,0.005l-0.044,0.01
		c-0.238,0.053-0.478,0.082-0.708,0.155c-0.469,0.102-0.915,0.278-1.369,0.455c-0.458,0.177-0.891,0.427-1.354,0.68
		c-0.435,0.289-0.878,0.613-1.282,1.015c-0.393,0.408-0.724,0.89-1.001,1.421c-0.12,0.272-0.251,0.571-0.301,0.755l-0.064,0.161
		c-0.026,0.035-0.034,0.209-0.052,0.308l-0.046,0.348l-0.023,0.174l-0.011,0.087l-0.006,0.043l-0.003,0.022
		c0.001-0.065-0.006,0.176,0.001-0.141c-0.045,0.623-0.038,1.258,0.078,1.886c0.134,0.62,0.335,1.238,0.637,1.817
		c0.622,1.142,1.546,2.157,2.69,2.829c0.285,0.163,0.58,0.318,0.884,0.442c0.313,0.124,0.619,0.241,0.875,0.306
		c0.208,0.1,0.707,0.144,1.098,0.203l0.076,0.011l0.039,0.005l0.019,0.003c0.029,0.002-0.181-0.004-0.085-0.001l0.122,0.009
		l0.244,0.019c0.162,0.009,0.327,0.038,0.488,0.032c1.294,0.038,2.594-0.168,3.76-0.638c1.166-0.468,2.147-1.21,2.858-2.023
		c0.718-0.814,1.115-1.709,1.338-2.458c0.119-0.377,0.19-0.721,0.217-1.018c0.048-0.294,0.074-0.548,0.063-0.773
		c0-0.438,0-0.671,0-0.671L295.6,445z"/>
</g>
<g>
	<path d="M270.5,428c-7.21-1.395-14.386-2.921-21.563-4.441l-10.745-2.359c-3.58-0.792-7.166-1.563-10.735-2.398l-10.718-2.462
		c-3.571-0.826-7.149-1.624-10.709-2.492l-21.384-5.121l3.987-2.077c-0.534,1.666-1.078,3.569-1.556,5.385
		c-0.483,1.842-0.913,3.705-1.331,5.569c-0.375,1.876-0.788,3.744-1.094,5.635c-0.349,1.883-0.631,3.776-0.896,5.673
		c-0.304,1.89-0.46,3.801-0.694,5.698c-0.211,1.902-0.316,3.813-0.502,5.717c-0.137,1.906-0.208,3.817-0.316,5.725
		c-0.067,1.909-0.063,3.819-0.1,5.729c-0.014,1.909,0.088,3.815,0.111,5.723c0.007,1.909,0.22,3.806,0.317,5.709
		c0.086,1.906,0.332,3.795,0.544,5.687l0.319,2.838l0.02,0.177l0.005,0.045c0.006,0.044-0.048-0.307-0.023-0.147l0.005,0.022
		l0.018,0.09l0.071,0.36l0.142,0.721l0.278,1.442c0.384,1.907,0.698,3.893,1.17,5.702l1.313,5.541
		c0.431,1.844,0.947,3.762,1.411,5.64l1.432,5.654l-5.284-2.588c7.184-2.96,14.381-5.885,21.588-8.789l10.819-4.336
		c3.609-1.438,7.213-2.888,10.837-4.291l21.717-8.48l10.899-4.143l10.906-4.128l-0.606,3.141c-0.635-0.699-1.131-1.32-1.642-2.006
		c-0.505-0.672-0.978-1.362-1.433-2.063c-0.447-0.706-0.881-1.42-1.277-2.156c-0.407-0.729-0.772-1.483-1.118-2.245l-0.498-1.153
		l-0.433-1.182c-0.279-0.79-0.514-1.6-0.716-2.415l-0.269-1.232c-0.083-0.412-0.117-0.837-0.176-1.253
		c-0.138-0.829-0.12-1.683-0.164-2.519c0.035-0.907,0.055-1.602,0.143-2.454c0.12-0.841,0.199-1.69,0.409-2.486
		c0.157-0.812,0.401-1.601,0.655-2.383c0.108-0.396,0.288-0.77,0.432-1.152c0.15-0.382,0.297-0.764,0.49-1.126
		c0.345-0.742,0.748-1.451,1.166-2.147c0.438-0.685,0.892-1.355,1.392-1.99C268.103,430.131,269.226,428.961,270.5,428z M270.5,428
		c-1.127,1.126-2.069,2.409-2.885,3.75c-0.409,0.671-0.767,1.369-1.106,2.07c-0.319,0.714-0.62,1.43-0.86,2.168
		c-0.252,0.731-0.46,1.478-0.635,2.226c-0.161,0.753-0.313,1.504-0.38,2.27c-0.122,0.763-0.105,1.507-0.143,2.248
		c-0.007,0.732,0.057,1.632,0.1,2.313c0.122,0.744,0.173,1.489,0.376,2.217c0.149,0.733,0.375,1.45,0.601,2.164
		c0.242,0.71,0.511,1.413,0.821,2.098l0.476,1.023l0.536,0.997c0.369,0.657,0.753,1.308,1.177,1.934
		c0.412,0.634,0.859,1.244,1.315,1.846c0.464,0.597,0.941,1.183,1.442,1.742c0.485,0.554,1.041,1.127,1.515,1.566l2.061,1.915
		l-2.668,1.227l-10.594,4.872l-10.601,4.857l-21.282,9.52c-3.543,1.597-7.105,3.146-10.663,4.709l-10.681,4.664
		c-7.126,3.096-14.262,6.171-21.411,9.211l-4.118,1.751l-1.167-4.34l-1.537-5.716c-0.493-1.92-1-3.784-1.473-5.753l-1.417-5.89
		c-0.515-1.983-0.819-3.872-1.217-5.803l-0.283-1.441l-0.139-0.721l-0.069-0.361l-0.017-0.09l-0.035-0.215l-0.005-0.048l-0.02-0.188
		l-0.326-3.003c-0.215-2.002-0.461-4.001-0.545-6.012c-0.096-2.008-0.305-4.014-0.306-6.024c-0.024-2.009-0.095-4.02-0.051-6.027
		c0.065-2.007,0.093-4.015,0.192-6.019c0.141-2.002,0.247-4.006,0.419-6.004c0.21-1.993,0.392-3.991,0.668-5.977
		c0.3-1.981,0.525-3.974,0.898-5.943c0.333-1.976,0.687-3.946,1.108-5.906c0.378-1.966,0.864-3.914,1.315-5.866
		c0.495-1.944,1.002-3.886,1.568-5.818c0.59-1.952,1.133-3.815,1.912-5.841l1.118-2.91l2.87,0.833l21.116,6.13
		c3.523,1.006,7.028,2.084,10.541,3.132l10.532,3.163c3.515,1.04,7.012,2.144,10.515,3.227l10.505,3.266
		C256.553,423.421,263.544,425.645,270.5,428z"/>
</g>
<circle fill="none" stroke="#000000" stroke-width="8" stroke-miterlimit="10" cx="286.915" cy="444.973" r="23.027"/>
<g>
	<path d="M303.069,428c6.956-2.355,13.947-4.579,20.937-6.809l10.505-3.266c3.503-1.083,7.001-2.187,10.516-3.227l10.532-3.163
		c3.513-1.048,7.017-2.126,10.54-3.132l21.116-6.13l2.87-0.833l1.118,2.91c0.777,2.026,1.321,3.889,1.911,5.841
		c0.566,1.932,1.073,3.874,1.568,5.818c0.451,1.952,0.938,3.9,1.315,5.866c0.422,1.96,0.774,3.931,1.107,5.906
		c0.374,1.97,0.598,3.962,0.898,5.943c0.275,1.985,0.458,3.983,0.668,5.977c0.173,1.998,0.278,4.002,0.419,6.004
		c0.1,2.004,0.127,4.012,0.192,6.019c0.044,2.008-0.027,4.019-0.051,6.027c-0.001,2.011-0.209,4.017-0.306,6.024
		c-0.084,2.011-0.33,4.01-0.545,6.012l-0.325,3.003l-0.021,0.188l-0.005,0.048l-0.035,0.215l-0.018,0.09l-0.069,0.361l-0.138,0.721
		l-0.283,1.441c-0.398,1.931-0.703,3.819-1.218,5.803l-1.418,5.89c-0.473,1.969-0.979,3.833-1.472,5.753l-1.537,5.716l-1.166,4.34
		l-4.118-1.751c-7.149-3.04-14.285-6.115-21.411-9.211l-10.682-4.664c-3.557-1.563-7.119-3.112-10.662-4.709l-21.282-9.52
		l-10.601-4.857l-10.595-4.872l-2.667-1.227l2.061-1.915c0.474-0.439,1.029-1.013,1.515-1.566c0.501-0.56,0.979-1.146,1.442-1.742
		c0.456-0.602,0.903-1.212,1.315-1.846c0.424-0.626,0.809-1.276,1.177-1.934l0.535-0.997l0.477-1.023
		c0.31-0.685,0.578-1.388,0.82-2.098c0.227-0.714,0.451-1.431,0.601-2.164c0.203-0.728,0.255-1.473,0.377-2.217
		c0.042-0.681,0.105-1.58,0.099-2.313c-0.037-0.741-0.021-1.485-0.142-2.249c-0.067-0.765-0.219-1.516-0.38-2.269
		c-0.176-0.748-0.383-1.494-0.636-2.226c-0.241-0.738-0.541-1.454-0.86-2.168c-0.339-0.701-0.697-1.399-1.106-2.07
		C305.139,430.409,304.196,429.126,303.069,428z M303.069,428c1.274,0.961,2.397,2.131,3.387,3.404
		c0.499,0.635,0.953,1.306,1.392,1.99c0.417,0.696,0.82,1.405,1.165,2.147c0.194,0.362,0.341,0.744,0.491,1.125
		c0.144,0.384,0.323,0.758,0.432,1.153c0.254,0.782,0.498,1.571,0.655,2.383c0.211,0.796,0.289,1.646,0.409,2.486
		c0.088,0.853,0.108,1.547,0.144,2.454c-0.045,0.836-0.026,1.689-0.165,2.519c-0.059,0.416-0.093,0.841-0.176,1.253l-0.269,1.232
		c-0.202,0.815-0.437,1.625-0.716,2.415l-0.434,1.182l-0.498,1.153c-0.345,0.761-0.71,1.516-1.117,2.245
		c-0.396,0.736-0.829,1.45-1.276,2.156c-0.455,0.701-0.928,1.392-1.433,2.063c-0.511,0.686-1.008,1.307-1.643,2.006l-0.606-3.141
		l10.905,4.128l10.899,4.143l21.718,8.48c3.624,1.403,7.229,2.854,10.838,4.291l10.818,4.336c7.207,2.904,14.405,5.829,21.589,8.789
		l-5.284,2.588l1.432-5.654c0.464-1.878,0.98-3.796,1.41-5.64l1.313-5.541c0.472-1.81,0.785-3.795,1.169-5.702l0.278-1.442
		l0.142-0.721l0.071-0.36l0.018-0.09l0.005-0.022c0.025-0.159-0.029,0.191-0.023,0.147l0.005-0.045l0.021-0.177l0.319-2.838
		c0.212-1.892,0.457-3.78,0.544-5.687c0.098-1.903,0.31-3.8,0.317-5.709c0.022-1.907,0.125-3.813,0.11-5.723
		c-0.036-1.909-0.032-3.819-0.099-5.729c-0.109-1.907-0.18-3.818-0.317-5.725c-0.186-1.903-0.291-3.814-0.502-5.717
		c-0.233-1.897-0.391-3.809-0.694-5.698c-0.265-1.896-0.547-3.79-0.896-5.673c-0.306-1.891-0.718-3.758-1.094-5.635
		c-0.419-1.865-0.848-3.727-1.331-5.569c-0.479-1.816-1.022-3.719-1.557-5.385l3.987,2.077l-21.383,5.121
		c-3.561,0.868-7.139,1.666-10.71,2.492l-10.718,2.462c-3.569,0.835-7.154,1.606-10.734,2.398l-10.745,2.359
		C317.455,425.079,310.28,426.605,303.069,428z"/>
</g>
<g>
	<path d="M284.211,544.607c1.712-1.047,3.544-2.288,5.277-3.521c1.749-1.247,3.47-2.541,5.153-3.879
		c3.368-2.677,6.594-5.526,9.606-8.56c3.011-3.033,5.81-6.255,8.243-9.689c2.435-3.431,4.495-7.086,5.924-10.923
		c0.695-1.921,1.263-3.88,1.588-5.865c0.182-0.991,0.276-1.989,0.354-2.987l0.031-0.749l0.015-0.375l0.002-0.047
		c-0.001-0.098,0.003,0.107,0.002,0.076v-0.026l-0.002-0.104l-0.004-0.208c-0.014-0.301-0.012-0.254-0.04-0.498
		c-0.021-0.189-0.059-0.392-0.099-0.596c-0.354-1.673-1.214-3.563-2.2-5.369c-0.997-1.821-2.155-3.617-3.384-5.379
		c-2.468-3.526-5.212-6.932-8.063-10.249c-1.428-1.659-2.888-3.296-4.372-4.911c-1.48-1.608-3.002-3.221-4.517-4.753l2.693,0.299
		c-0.989,0.576-1.954,1.112-2.966,1.645c-0.496,0.267-1.025,0.522-1.544,0.78c-0.553,0.249-1.084,0.505-1.832,0.745l-0.13,0.045
		l-0.033,0.011l-0.153,0.037l-0.051,0.01l-0.202,0.038l-0.404,0.077l-1.016,0.125c-0.64,0.056-1.186,0.095-1.762,0.116
		c-1.143,0.053-2.247,0.07-3.388,0.07l-1.737-0.071l-1.69-0.11c-0.564-0.038-1.14-0.1-1.729-0.168l-0.913-0.133l-0.53-0.115
		l-0.264-0.062l-0.066-0.016l-0.017-0.004l-0.127-0.04l-0.024-0.009l-0.096-0.037c-0.271-0.112-0.477-0.171-0.8-0.327l-0.902-0.432
		c-0.508-0.272-1.022-0.541-1.508-0.823c-0.988-0.561-1.934-1.129-2.896-1.731l2.154-0.239c-1.567,1.479-3.133,3.029-4.665,4.583
		c-1.534,1.559-3.045,3.14-4.527,4.746c-2.96,3.215-5.823,6.521-8.441,9.986c-1.304,1.734-2.547,3.511-3.653,5.348
		c-1.088,1.834-2.091,3.746-2.628,5.697c-0.127,0.484-0.237,0.973-0.28,1.446c-0.019,0.12-0.016,0.234-0.025,0.353l-0.01,0.155
		l0,0.207l0.003,0.826c0.024,1.06,0.086,2.107,0.224,3.177c0.251,2.123,0.729,4.226,1.371,6.283
		c1.286,4.119,3.249,8.037,5.577,11.723c2.34,3.684,5.044,7.148,7.975,10.411c2.93,3.267,6.083,6.341,9.39,9.242
		c3.314,2.893,6.76,5.648,10.396,8.14c-3.718-2.369-7.26-5.013-10.681-7.804c-3.414-2.8-6.686-5.782-9.751-8.978
		c-3.066-3.193-5.922-6.607-8.434-10.285c-2.499-3.681-4.658-7.639-6.146-11.895c-0.742-2.126-1.32-4.321-1.662-6.565
		c-0.181-1.112-0.29-2.265-0.352-3.406l-0.031-0.825l-0.007-0.207l0.003-0.257c0.005-0.157,0.001-0.319,0.018-0.473
		c0.037-0.626,0.151-1.222,0.283-1.807c0.564-2.327,1.58-4.387,2.664-6.374c1.103-1.978,2.329-3.859,3.612-5.692
		c2.575-3.658,5.375-7.12,8.274-10.489c1.451-1.683,2.93-3.339,4.433-4.974c1.509-1.637,3.022-3.24,4.607-4.842l0.937-0.946
		l1.217,0.707c0.914,0.53,1.867,1.06,2.803,1.549c0.471,0.254,0.937,0.476,1.402,0.707l0.587,0.264
		c0.168,0.089,0.492,0.181,0.73,0.271l0.097,0.034l0.024,0.009c0.026,0.008-0.208-0.067-0.107-0.035l0.004,0.001l0.009,0.001
		l0.035,0.006l0.138,0.021l0.275,0.051l0.717,0.077c0.501,0.041,1.018,0.08,1.548,0.098l1.594,0.05l1.549,0.014
		c1.05-0.035,2.139-0.09,3.183-0.174c0.518-0.035,1.064-0.097,1.514-0.149l0.614-0.085l0.401-0.09l0.201-0.045l0.05-0.012
		l0.013-0.003l0.006-0.001c0.116-0.029-0.15,0.038-0.122,0.03l0.016-0.007l0.063-0.027c0.181-0.086,0.301-0.106,0.536-0.229
		l0.651-0.319c0.454-0.246,0.906-0.481,1.366-0.75c0.912-0.518,1.845-1.079,2.732-1.636l1.427-0.897l1.267,1.196
		c1.656,1.566,3.232,3.13,4.811,4.73c1.571,1.599,3.12,3.221,4.642,4.873c3.042,3.309,5.991,6.719,8.736,10.371
		c1.368,1.83,2.687,3.721,3.891,5.751c1.188,2.046,2.324,4.174,3.007,6.824c0.08,0.336,0.155,0.677,0.211,1.037
		c0.06,0.303,0.115,0.903,0.129,1.154l0.011,0.208l0.009,0.314l-0.003,0.457l-0.008,0.913c-0.051,1.215-0.13,2.431-0.305,3.628
		c-0.314,2.405-0.907,4.747-1.647,7.02c-1.519,4.535-3.727,8.74-6.291,12.628c-2.568,3.892-5.493,7.485-8.618,10.854
		c-3.128,3.366-6.459,6.511-9.938,9.471c-1.739,1.48-3.518,2.913-5.335,4.302c-1.837,1.397-3.631,2.713-5.66,4.049L284.211,544.607z
		"/>
</g>
<g>
	<path d="M279.9,482c0.524,5.917,0.97,11.833,1.377,17.75l0.583,8.875c0.195,2.958,0.372,5.917,0.513,8.875l0.27,5.67l-4.879-3.381
		c-0.888-0.615-1.703-1.204-2.54-1.821c-0.83-0.613-1.651-1.237-2.466-1.875c-1.631-1.273-3.25-2.58-4.863-3.952
		c-1.601-1.389-3.215-2.819-4.698-4.579c-0.745-0.885-1.468-1.843-2.111-3.023c-0.16-0.296-0.324-0.591-0.467-0.94
		c-0.147-0.325-0.289-0.674-0.414-1.073c-0.134-0.36-0.24-0.806-0.323-1.262c-0.047-0.212-0.08-0.458-0.098-0.729l-0.026-0.392
		l-0.01-0.196l-0.003-0.098l-0.002-0.049l0-0.024l0.011-0.335l0.04-0.374l0.022-0.188l0.07-0.418
		c0.053-0.285,0.116-0.569,0.188-0.85c0.073-0.274,0.132-0.403,0.202-0.611c0.132-0.395,0.29-0.733,0.449-1.051
		c0.156-0.34,0.323-0.63,0.492-0.917c0.691-1.142,1.426-2.074,2.188-2.936c1.532-1.695,3.16-3.095,4.849-4.376
		c1.697-1.268,3.454-2.402,5.28-3.417c0.907-0.515,1.857-0.967,2.791-1.429c0.961-0.43,1.917-0.852,2.934-1.192l0.596-0.2L279.9,482
		z M278.992,483.396c-0.346,0.494-0.684,0.989-1.028,1.478l-1.813,2.452l-3.566,4.749c-1.153,1.552-2.265,3.1-3.175,4.591
		c-0.446,0.739-0.849,1.468-1.099,2.101c-0.067,0.155-0.134,0.31-0.165,0.437c-0.051,0.139-0.083,0.264-0.094,0.352
		c-0.004,0.031-0.042,0.136-0.024,0.105c0.019-0.035,0.029-0.074,0.029-0.114c0-0.015-0.003-0.051-0.007-0.05l-0.007,0.188
		l-0.019,0.376c0.023-0.621,0.007-0.173,0.013-0.312l0.001-0.001l0.002-0.002l0.004-0.004l0.005-0.009
		c0.002-0.006,0.003-0.011,0.003-0.017c-0.007-0.02-0.008-0.018,0.01,0.014c0.017,0.036,0.017,0.082,0.063,0.191
		c0.019,0.082,0.066,0.198,0.128,0.329c0.044,0.116,0.114,0.266,0.189,0.414c0.297,0.592,0.713,1.296,1.176,2.011
		c0.959,1.429,2.085,2.944,3.325,4.389c1.235,1.456,2.581,2.86,3.984,4.215c0.702,0.677,1.416,1.346,2.138,2.005
		c0.717,0.653,1.467,1.321,2.172,1.927l-4.609,2.289c0.141-2.958,0.318-5.917,0.513-8.875l0.583-8.875
		C278.098,494.299,278.52,488.848,278.992,483.396z"/>
</g>
<g>
	<path d="M299.098,485.457l-1.532,32.043l-3.694-1.835c0.778-0.536,1.592-1.126,2.379-1.709c0.792-0.587,1.576-1.186,2.352-1.794
		c1.552-1.216,3.069-2.474,4.524-3.784c1.452-1.312,2.851-2.678,4.085-4.131c0.609-0.728,1.18-1.479,1.643-2.249
		c0.231-0.384,0.441-0.776,0.584-1.157c0.089-0.193,0.137-0.378,0.188-0.563c0.033-0.096,0.05-0.184,0.057-0.269l0.02-0.129
		l0.011-0.065l0.006-0.032l0.003-0.017l0.001-0.009c0.002,0.036-0.002-0.091,0.005,0.078l-0.012-0.376l-0.005-0.188l-0.023-0.121
		c-0.025-0.153-0.042-0.318-0.112-0.537c-0.101-0.406-0.271-0.829-0.466-1.245c-0.389-0.837-0.894-1.661-1.439-2.464
		c-1.107-1.604-2.391-3.128-3.731-4.599C302.398,488.629,300.769,487.024,299.098,485.457z M295.263,482
		c3.29,2.31,6.474,4.781,9.488,7.489c1.501,1.361,2.958,2.785,4.293,4.369c0.662,0.798,1.297,1.634,1.849,2.571
		c0.274,0.469,0.534,0.959,0.733,1.51c0.108,0.252,0.198,0.577,0.272,0.917c0.046,0.181,0.068,0.32,0.078,0.434l0.048,0.374
		l0.001,0.146l-0.001,0.062l-0.004,0.122l-0.01,0.246c-0.004,0.167-0.02,0.327-0.051,0.476c-0.049,0.308-0.106,0.613-0.197,0.89
		c-0.157,0.576-0.378,1.098-0.616,1.6c-0.478,1.003-1.046,1.912-1.645,2.785c-1.208,1.734-2.55,3.315-3.939,4.837
		c-1.393,1.519-2.84,2.971-4.322,4.382c-0.741,0.706-1.492,1.401-2.252,2.086c-0.766,0.689-1.518,1.354-2.333,2.04l-3.467,2.915
		l-0.227-4.75l-1.836-38.406L295.263,482z"/>
</g>
<g>
	<path d="M343.946,298.561c0.296,0.683,0.574,1.358,0.785,2.034c1.047,3.378,1.415,6.66,1.528,9.882
		c0.03,0.807,0.035,1.609,0.029,2.409l-0.072,2.326c-0.057,1.502-0.082,2.979-0.164,4.502c-0.221,3.091-0.406,6.195-0.789,9.218
		c-0.291,3.047-0.802,6.066-1.257,9.087l-0.833,4.508c-0.271,1.503-0.642,2.986-0.958,4.479c-0.312,1.495-0.681,2.976-1.068,4.451
		c-0.386,1.476-0.733,2.962-1.18,4.42c-0.433,1.462-0.837,2.932-1.291,4.386l-1.411,4.347c-1.004,2.875-2.024,5.744-3.159,8.567
		c-0.537,1.424-1.144,2.819-1.733,4.22c-0.577,1.407-1.197,2.794-1.832,4.175c-0.618,1.388-1.259,2.766-1.932,4.127
		c-0.655,1.371-1.322,2.734-2.028,4.079c-0.688,1.354-1.388,2.7-2.124,4.028c-0.716,1.338-1.452,2.665-2.216,3.976
		c-1.495,2.64-3.082,5.226-4.703,7.789c-1.632,2.556-3.313,5.08-5.07,7.552c-1.744,2.48-3.562,4.911-5.444,7.294
		c-1.896,2.393-3.799,4.698-5.942,7.003l-1.078,1.158l-1.383-0.723l-9.933-5.188l-1.125-0.588l0.065-1.207l0.985-18.107
		c0.313-6.033,0.772-12.068,1.151-18.1l0.299-4.524l0.414-4.533l0.828-9.061c0.325-3.015,0.867-6.05,1.451-9.022
		c0.595-2.982,1.275-5.943,2.023-8.886c1.508-5.881,3.302-11.687,5.428-17.371c2.135-5.68,4.614-11.241,7.624-16.52
		c1.521-2.629,3.187-5.177,5.033-7.591c1.838-2.419,3.923-4.663,6.258-6.612c2.334-1.941,4.965-3.568,7.844-4.544l1.078-0.366
		l1.113-0.239l1.111-0.238l1.133-0.102l1.13-0.101c0.371-0.032,0.754-0.054,1.106-0.167c0.351-0.095,0.667-0.401,1.068-0.338
		c0.378,0.062,0.718,0.237,1.061,0.393L343.946,298.561z M329.046,295.612l-0.942,0.229l-1.057,0.391
		c-2.818,1.041-5.363,2.711-7.611,4.684c-2.247,1.98-4.242,4.244-5.992,6.68c-1.758,2.431-3.334,4.99-4.768,7.627
		c-2.835,5.295-5.142,10.862-7.104,16.54c-1.955,5.683-3.577,11.479-4.913,17.334c-0.662,2.929-1.256,5.873-1.764,8.827
		c-0.5,2.966-0.945,5.896-1.188,8.894l-0.58,9l-0.291,4.497l-0.177,4.521c-0.218,6.03-0.515,12.05-0.667,18.084l-0.501,18.094
		l-1.06-1.794l10.067,4.921l-2.461,0.437c1.879-2.132,3.735-4.494,5.494-6.843c1.767-2.364,3.473-4.778,5.107-7.241
		c1.647-2.454,3.222-4.958,4.745-7.491c1.512-2.54,2.991-5.099,4.378-7.708c0.709-1.296,1.392-2.606,2.053-3.926
		c0.682-1.31,1.326-2.638,1.96-3.972c0.651-1.325,1.264-2.667,1.864-4.015c0.619-1.34,1.205-2.693,1.768-4.057
		c0.581-1.355,1.146-2.717,1.669-4.095c0.535-1.374,1.088-2.74,1.569-4.132c1.026-2.762,1.938-5.562,2.835-8.365l1.249-4.232
		c0.401-1.415,0.753-2.843,1.132-4.262c0.394-1.417,0.688-2.856,1.021-4.287c0.337-1.43,0.654-2.863,0.914-4.308
		c0.265-1.443,0.585-2.876,0.806-4.327l0.684-4.346c0.357-2.909,0.772-5.812,0.971-8.734c0.293-2.929,0.38-5.81,0.517-8.695
		c0.041-1.468,0.028-2.986,0.044-4.477l0.011-2.164c-0.014-0.697-0.036-1.392-0.081-2.081c-0.161-2.751-0.585-5.462-1.384-7.788
		c-0.391-1.165-0.918-2.179-1.493-2.97c-0.142-0.2-0.28-0.405-0.442-0.543l-0.225-0.24l-0.106-0.118l-0.068-0.039
		c-0.042-0.029-0.079-0.062-0.112-0.101l-0.048-0.063c-0.013-0.013-0.003-0.02-0.033-0.039l-0.122-0.07l-0.975-0.557
		L329.046,295.612z"/>
</g>
<g>
	<path d="M289.56,322.667c-0.685-2.526-0.859-5.209-0.553-7.833c0.263-2.625,0.956-5.2,0.955-7.72
		c0.011-1.258-0.224-2.484-0.651-3.637c-0.432-1.155-1.088-2.224-1.844-3.222c-0.755-1-1.636-1.92-2.561-2.793l-0.348-0.327
		l-0.2-0.19l-0.185-0.162l-0.735-0.654c-0.486-0.515-1-1.044-1.413-1.589c-0.874-1.083-1.63-2.254-2.278-3.47
		c-0.672-1.209-1.212-2.477-1.693-3.757c-0.977-2.562-1.625-5.211-2.136-7.869c-0.481-2.663-0.81-5.344-0.977-8.031
		c-0.087-1.344-0.149-2.689-0.164-4.037c-0.012-1.362-0.004-2.668,0.068-4.104l3.695,2.686c-1.544,0.74-3.1,1.421-4.652,2.126
		c-1.552,0.703-3.123,1.36-4.687,2.036s-3.15,1.302-4.731,1.946c-1.58,0.647-3.182,1.243-4.786,1.847
		c-1.604,0.608-3.228,1.17-4.886,1.713c-0.833,0.268-1.666,0.542-2.553,0.776c-0.447,0.119-0.896,0.234-1.412,0.341
		c-0.263,0.053-0.534,0.105-0.901,0.148c-0.196,0.019-0.398,0.044-0.778,0.031c-0.202-0.018-0.426-0.007-0.963-0.18
		c-0.142-0.053-0.244-0.086-0.48-0.216c-0.204-0.121-0.369-0.219-0.648-0.494c-0.122-0.123-0.232-0.257-0.329-0.396
		c-0.111-0.164-0.209-0.345-0.287-0.533c-0.161-0.399-0.204-0.702-0.215-1.057c0.193-2.707,1.149-4.453,2.114-6.124
		c1.004-1.634,2.124-3.091,3.322-4.433c2.402-2.678,5.014-5.023,7.768-7.17c1.373-1.079,2.787-2.097,4.245-3.064
		c0.727-0.485,1.467-0.958,2.228-1.406c0.783-0.458,1.493-0.862,2.431-1.304c0.716-0.315,1.734-0.712,2.576-0.927
		c0.874-0.242,1.746-0.428,2.616-0.58c1.74-0.297,3.472-0.474,5.199-0.56c3.454-0.142,6.896,0.005,10.272,0.523
		c-3.402,0.228-6.766,0.627-10.05,1.303c-1.64,0.328-3.262,0.709-4.821,1.206c-0.779,0.248-1.542,0.524-2.27,0.839
		c-0.765,0.331-1.31,0.604-2.104,1.063c-0.562,0.354-1.285,0.863-1.915,1.343c-0.647,0.496-1.299,0.995-1.934,1.522
		c-1.278,1.042-2.51,2.151-3.723,3.269c-2.408,2.254-4.7,4.637-6.666,7.156c-0.983,1.256-1.87,2.552-2.57,3.853
		c-0.701,1.264-1.135,2.718-1.175,3.417c-0.007-0.33-0.053-0.604-0.2-0.98c-0.072-0.176-0.164-0.345-0.27-0.497
		c-0.088-0.13-0.189-0.254-0.301-0.368c-0.264-0.254-0.404-0.34-0.585-0.447c-0.215-0.115-0.291-0.142-0.408-0.185
		c-0.437-0.139-0.554-0.119-0.65-0.132c-0.168-0.007-0.159-0.001-0.145-0.009l0.35-0.089c0.311-0.085,0.678-0.202,1.044-0.325
		c0.738-0.254,1.514-0.519,2.284-0.806l4.672-1.788c6.256-2.451,12.565-4.943,18.897-7.301l4.155-1.547l-0.46,4.233
		c-0.127,1.172-0.215,2.48-0.275,3.733c-0.056,1.267-0.108,2.538-0.115,3.808c-0.013,2.541,0.058,5.082,0.281,7.603
		c0.223,2.518,0.588,5.02,1.176,7.451c0.291,1.217,0.653,2.412,1.082,3.575c0.42,1.17,0.938,2.297,1.564,3.356
		c0.305,0.552,0.647,1.013,0.985,1.513l0.622,0.763l0.154,0.192c0.004,0.009,0.101,0.107,0.146,0.157l0.347,0.366
		c0.922,0.975,1.802,2.003,2.561,3.137c0.758,1.129,1.42,2.353,1.832,3.678c0.409,1.322,0.586,2.723,0.497,4.079
		c-0.067,1.361-0.34,2.671-0.635,3.95c-0.295,1.281-0.604,2.542-0.826,3.82C289.086,317.458,289.075,320.09,289.56,322.667z"/>
</g>
<g>
	<path d="M285.895,249c1.678-0.274,3.399-0.447,5.107-0.54c1.718-0.079,3.44-0.105,5.171-0.033c1.729,0.088,3.464,0.251,5.209,0.544
		c1.747,0.286,3.5,0.737,5.254,1.526c1.697,0.796,3.155,1.729,4.63,2.689c1.468,0.958,2.869,1.996,4.25,3.066
		c2.757,2.149,5.376,4.495,7.773,7.185c1.193,1.35,2.327,2.801,3.331,4.444c0.486,0.838,0.959,1.701,1.332,2.691
		c0.191,0.486,0.36,1.003,0.493,1.551c0.061,0.281,0.134,0.547,0.176,0.842l0.057,0.446l0.026,0.224l0.012,0.112l0.007,0.056
		l0.003,0.028c0.011-0.384-0.011,0.555-0.01,0.465l-0.001,0.02c0.012-0.109-0.017,0.248-0.109,0.542
		c-0.087,0.289-0.222,0.567-0.382,0.803c-0.104,0.152-0.213,0.282-0.338,0.41c-0.285,0.282-0.457,0.385-0.664,0.507
		c-0.241,0.133-0.349,0.169-0.492,0.222c-0.55,0.178-0.777,0.167-0.983,0.185c-0.388,0.014-0.592-0.012-0.79-0.031
		c-0.37-0.043-0.644-0.094-0.906-0.151c-0.517-0.112-0.966-0.232-1.412-0.356c-0.884-0.248-1.722-0.511-2.554-0.781
		c-1.659-0.543-3.269-1.146-4.878-1.74c-3.205-1.217-6.358-2.515-9.486-3.87c-3.124-1.367-6.215-2.781-9.285-4.286l3.323-2.975
		c0.254,0.992,0.43,1.86,0.605,2.787c0.17,0.914,0.32,1.827,0.444,2.744c0.243,1.834,0.406,3.679,0.476,5.531
		c0.118,3.701-0.12,7.458-1.062,11.109c-0.456,1.825-1.14,3.606-2.019,5.284c-0.884,1.674-2.006,3.237-3.36,4.552
		c-1.37,1.299-2.936,2.36-4.615,3.108c-1.681,0.747-3.454,1.198-5.228,1.421c0.843-0.304,1.68-0.604,2.475-0.991
		c0.798-0.376,1.566-0.801,2.287-1.286c1.459-0.939,2.722-2.123,3.754-3.453c1.022-1.341,1.847-2.81,2.429-4.381
		c0.593-1.567,0.964-3.212,1.209-4.879c0.478-3.34,0.382-6.776-0.022-10.171c-0.198-1.7-0.483-3.394-0.841-5.07
		c-0.178-0.838-0.366-1.674-0.577-2.5c-0.208-0.813-0.446-1.677-0.683-2.398l-1.54-4.699l4.863,1.724
		c3.186,1.129,6.367,2.305,9.531,3.491l9.45,3.609c1.563,0.61,3.135,1.191,4.682,1.761c0.771,0.285,1.543,0.561,2.283,0.8
		c0.367,0.118,0.734,0.23,1.045,0.311l0.343,0.086c0.013,0.007,0.02,0.001-0.155,0.009c-0.101,0.014-0.221-0.006-0.671,0.137
		c-0.119,0.044-0.199,0.073-0.419,0.191c-0.185,0.109-0.332,0.2-0.601,0.46c-0.116,0.119-0.216,0.24-0.312,0.382
		c-0.153,0.223-0.283,0.49-0.364,0.766c-0.087,0.283-0.109,0.628-0.098,0.505l0.003-0.02c0.003-0.103-0.021,0.822-0.011,0.425
		l-0.002-0.011l-0.002-0.023l-0.005-0.046l-0.008-0.093l-0.012-0.187c-0.008-0.125-0.049-0.271-0.067-0.406
		c-0.053-0.278-0.133-0.577-0.239-0.883c-0.193-0.611-0.512-1.258-0.848-1.901c-0.7-1.293-1.574-2.594-2.562-3.842
		c-1.971-2.507-4.255-4.889-6.661-7.141c-1.204-1.126-2.449-2.216-3.717-3.267c-1.265-1.039-2.59-2.065-3.878-2.886
		c-1.267-0.765-2.762-1.381-4.313-1.882c-1.554-0.501-3.172-0.896-4.811-1.222C292.656,249.665,289.305,249.249,285.895,249z"/>
</g>
<g>
	<path d="M405.076,518.775c0,0-0.078-0.193-0.229-0.567c-0.138-0.381-0.407-0.913-0.634-1.67c-0.536-1.451-1.031-3.95,0.134-6.851
		c1.042-2.839,2.988-5.943,5.582-9.144c2.577-3.209,5.796-6.623,9.64-9.912c0.962-0.836,1.967-1.697,3.195-2.508
		c0.607-0.403,1.313-0.808,2.306-1.108c-0.078,0.01,0.208-0.047,0.198-0.043l0.062-0.012l0.122-0.021l0.244-0.045
		c0.179-0.026,0.292-0.066,0.524-0.082c0.418-0.035,0.881-0.08,1.272-0.088c1.52-0.045,2.978,0.092,4.539,0.409
		c0.775,0.161,1.601,0.394,2.534,0.836c0.652,0.342,1.361,0.751,1.997,1.15c1.288,0.802,2.535,1.677,3.761,2.655
		c1.224,0.983,2.427,2.05,3.563,3.388c0.563,0.678,1.12,1.412,1.587,2.397c0.112,0.258,0.24,0.466,0.323,0.78l0.131,0.444
		l0.062,0.224l0.029,0.112c0.007,0.005,0.063,0.392,0.043,0.26l0.072,0.567c0.021,0.246,0.026,0.597,0.027,0.893
		c-0.028,1.118-0.167,1.965-0.366,2.849c-0.188,0.876-0.441,1.692-0.705,2.51c-0.552,1.615-1.213,3.162-1.984,4.692
		c-0.399,0.765-0.801,1.522-1.296,2.295c-0.113,0.19-0.258,0.391-0.389,0.586l-0.383,0.544l-0.711,0.978
		c-1.963,2.67-4.01,5.233-6.229,7.754c-2.22,2.515-4.532,4.992-7.174,7.322c-1.316,1.167-2.731,2.289-4.432,3.304l-0.319,0.189
		l-0.16,0.094l-0.079,0.047l-0.222,0.108l-0.566,0.26l-1.131,0.52c-0.759,0.345-1.476,0.706-2.369,1
		c-1.702,0.604-3.445,1.247-5.067,1.663l-2.473,0.701c-0.824,0.225-1.652,0.398-2.478,0.6l-2.476,0.583l-2.485,0.479l-2.479,0.468
		l-2.491,0.375c-3.305,0.536-6.651,0.824-10.06,0.911c-3.222,0.007-6.435-0.034-9.575-0.131c-6.295-0.167-12.396-0.673-18.181-1.611
		c-2.893-0.502-5.715-1.09-8.423-2.039c-0.676-0.238-1.345-0.475-2.005-0.799l-0.982-0.45l-0.062-0.028l-0.155-0.079l-0.104-0.063
		l-0.209-0.128l-0.417-0.253l-0.827-0.504c-0.276-0.175-0.57-0.404-0.851-0.604c-0.552-0.413-1.156-0.817-1.637-1.229
		c-3.996-3.252-7.171-6.578-9.966-9.55c-2.792-2.969-5.096-5.663-6.984-7.886c-1.895-2.217-3.309-4.022-4.288-5.236
		c-0.96-1.232-1.472-1.89-1.472-1.89s2.409,2.293,6.626,6.305c2.117,1.99,4.718,4.375,7.721,7.063
		c3.021,2.654,6.482,5.64,10.419,8.43c0.493,0.364,0.967,0.617,1.452,0.938c0.249,0.151,0.466,0.311,0.743,0.459l0.861,0.441
		l0.434,0.222l0.218,0.112l0.108,0.056c-0.175-0.089-0.019-0.014-0.044-0.028l0.053,0.019l0.836,0.308
		c0.544,0.224,1.146,0.387,1.752,0.551c2.419,0.66,5.07,1.111,7.826,1.429c5.532,0.601,11.479,0.747,17.638,0.765
		c3.087-0.005,6.207-0.063,9.395-0.172c1.519-0.14,3.006-0.162,4.574-0.412c1.554-0.184,3.115-0.374,4.689-0.665l2.362-0.394
		l2.358-0.485l2.365-0.49l2.348-0.567c0.781-0.194,1.574-0.364,2.347-0.58l2.311-0.669c1.595-0.418,2.959-0.96,4.395-1.443
		c0.697-0.199,1.473-0.574,2.229-0.909l1.138-0.508l0.568-0.254c-0.044,0.022,0.198-0.096-0.081,0.042l0.055-0.032l0.107-0.063
		l0.217-0.128c1.157-0.672,2.38-1.587,3.544-2.605c2.346-2.023,4.574-4.347,6.704-6.712c2.109-2.382,4.185-4.834,6.107-7.263
		l0.731-0.942l0.32-0.424c0.094-0.134,0.19-0.252,0.284-0.401c0.385-0.556,0.75-1.19,1.103-1.816
		c0.693-1.272,1.311-2.602,1.809-3.92c0.234-0.656,0.463-1.316,0.616-1.947c0.174-0.613,0.271-1.295,0.302-1.703
		c-0.001-0.086,0.024-0.118,0.025-0.252l-0.056-0.569c-0.025-0.179,0.028,0.16,0.019,0.12l-0.009-0.025l-0.017-0.051l-0.023-0.104
		c0.006-0.06-0.069-0.18-0.099-0.272c-0.148-0.401-0.468-0.91-0.838-1.399c-1.541-1.997-3.761-3.86-5.932-5.391
		c-0.555-0.39-1.059-0.718-1.634-1.063c-0.216-0.077-0.333-0.189-0.614-0.272c-0.271-0.08-0.499-0.192-0.805-0.253
		c-1.141-0.302-2.414-0.483-3.58-0.54l-0.732-0.021c-0.102-0.016-0.313,0.026-0.464,0.037l-0.247,0.026l-0.124,0.013l-0.062,0.007
		c-0.051,0.007,0.196-0.038,0.079-0.014c-0.275,0.069-0.757,0.237-1.245,0.526c-0.981,0.545-1.979,1.266-2.95,1.997
		c-3.936,2.942-7.308,5.903-10.09,8.762c-2.757,2.86-4.95,5.582-6.203,8.097c-0.177,0.313-0.296,0.615-0.411,0.912
		c-0.108,0.308-0.266,0.565-0.329,0.895c-0.083,0.313-0.163,0.617-0.241,0.911c-0.05,0.231-0.064,0.548-0.099,0.806
		c-0.128,1.077,0.037,2.019,0.185,2.772c0.126,0.762,0.307,1.341,0.389,1.733C405.027,518.573,405.076,518.775,405.076,518.775z"/>
</g>
<g>
	<path d="M428.53,525.382c0.282,0.165,0.556,0.352,0.846,0.5l0.886,0.382c0.61,0.221,1.222,0.421,1.851,0.577
		c0.626,0.16,1.257,0.303,1.894,0.418c0.635,0.122,1.274,0.223,1.915,0.314c1.28,0.187,2.565,0.343,3.854,0.458
		c1.285,0.113,2.591,0.203,3.858,0.246l-0.276,0.009c4.194-0.925,8.4-1.667,12.628-2.399c2.114-0.36,4.233-0.699,6.364-0.977
		c2.13-0.286,4.264-0.561,6.415-0.776c1.073-0.119,2.149-0.225,3.234-0.306c1.081-0.095,2.165-0.182,3.264-0.228
		c1.091-0.065,2.19-0.119,3.311-0.104c0.56,0.003,1.109-0.015,1.678,0.006l1.721,0.092l0.865,0.053l0.911,0.129l0.913,0.134
		l0.457,0.069l0.058,0.009l0.028,0.004c-0.152-0.043,0.24,0.063,0.208,0.055l0.096,0.027l0.192,0.054l1.539,0.431l0.769,0.216
		c0.268,0.086,0.559,0.208,0.836,0.313l1.687,0.665c0.567,0.223,1.132,0.45,1.614,0.694c1.006,0.483,2.028,0.95,3.021,1.453
		l2.926,1.574c0.967,0.539,1.9,1.126,2.851,1.692c0.957,0.552,1.863,1.198,2.794,1.801c0.933,0.593,1.84,1.26,2.747,1.93
		c0.454,0.34,0.91,0.65,1.362,1.015l1.35,1.125l0.674,0.566l0.084,0.071l0.041,0.035l0.021,0.018l0.125,0.122l0.14,0.142
		l0.281,0.284l1.122,1.137l1.122,1.137l1.123,1.25l2.243,2.523c1.419,1.662,2.801,3.3,4.17,4.971l4.032,5.025
		c2.673,3.36,5.268,6.75,7.852,10.194l2.68,3.572l-3.875,2.237c-2.462,1.42-4.868,2.75-7.356,4.044
		c-2.484,1.282-5,2.521-7.609,3.677c-1.306,0.577-2.632,1.135-4.022,1.649c-1.381,0.523-2.846,0.982-4.513,1.347l-1.392,0.211
		l-0.174,0.023l-0.087,0.012l-0.233,0.014l-0.257,0.009l-0.513,0.017c-0.706,0.012-1.317,0.067-2.102,0.044l-2.357-0.089
		c-0.799-0.025-1.471-0.129-2.212-0.191c-2.907-0.264-5.699-0.795-8.48-1.343c-2.76-0.599-5.498-1.241-8.192-1.995
		c-2.697-0.752-5.369-1.561-8.013-2.444c-2.652-0.858-5.268-1.826-7.871-2.822c-2.596-1.027-5.186-2.058-7.734-3.258
		c-1.275-0.57-2.555-1.225-3.811-1.851l-3.652-1.901c-4.854-2.597-9.686-5.275-14.419-8.144c-2.355-1.456-4.683-2.962-6.954-4.568
		c-2.264-1.614-4.523-3.245-6.601-5.145c-0.534-0.448-1.024-0.969-1.531-1.454c-0.514-0.477-0.984-1.015-1.452-1.549
		c-0.942-1.056-1.771-2.102-2.657-3.172c-1.765-2.11-3.328-4.436-4.678-6.814l1.335,1.566c0.44,0.521,0.859,1.056,1.354,1.529
		l1.427,1.458c0.483,0.478,1,0.932,1.495,1.4c0.988,0.923,2,1.904,3.006,2.771c0.495,0.438,0.986,0.873,1.534,1.264
		c0.539,0.396,1.046,0.816,1.615,1.18c2.192,1.529,4.513,2.914,6.871,4.226c2.351,1.325,4.788,2.52,7.209,3.732
		c4.855,2.414,9.813,4.646,14.815,6.807l3.752,1.644c1.231,0.514,2.427,1.031,3.686,1.496c2.481,0.958,5.021,1.845,7.568,2.687
		c2.559,0.82,5.13,1.608,7.715,2.338c2.581,0.744,5.183,1.41,7.786,2.019c2.603,0.627,5.21,1.166,7.815,1.646
		c2.602,0.433,5.212,0.828,7.76,1.022c0.623,0.04,1.31,0.13,1.879,0.13l1.745,0.047c0.584,0.019,1.339-0.055,2-0.078l0.513-0.026
		l0.257-0.013l0.031-0.002c-0.064,0.005,0.191-0.012-0.138,0.01l0.04-0.009l0.079-0.017c0.212-0.044,0.423-0.081,0.636-0.112
		c1-0.244,2.15-0.614,3.326-1.066c1.173-0.441,2.368-0.951,3.562-1.487c2.389-1.076,4.779-2.269,7.151-3.512
		c2.363-1.238,4.764-2.526,7.048-3.833l-1.195,5.81c-2.51-3.383-5.078-6.77-7.631-10.136l-3.874-5.013l-3.916-4.922l-1.93-2.314
		l-0.972-1.161l-1.087-1.171l-1.088-1.17l-0.271-0.293l-0.136-0.146c-0.028-0.028,0.188,0.186,0.088,0.088l-0.017-0.015l-0.034-0.03
		l-0.066-0.06l-0.533-0.479l-1.063-0.968c-0.362-0.321-0.776-0.628-1.162-0.942c-0.78-0.629-1.562-1.261-2.404-1.846
		c-0.834-0.589-1.636-1.221-2.504-1.769l-2.567-1.692l-2.619-1.599c-0.881-0.507-1.774-0.972-2.662-1.462
		c-0.456-0.263-0.872-0.451-1.286-0.641l-1.251-0.591c-0.214-0.098-0.405-0.205-0.638-0.301l-0.754-0.266l-1.508-0.531l-0.188-0.066
		l-0.094-0.033c-0.048-0.015,0.328,0.089,0.159,0.044l-0.021-0.005l-0.041-0.008l-0.33-0.067l-0.66-0.14l-0.662-0.146l-0.726-0.09
		l-1.462-0.177c-0.494-0.051-1.01-0.067-1.515-0.104c-1.009-0.073-2.038-0.119-3.077-0.14c-1.031-0.043-2.075-0.047-3.122-0.042
		c-1.044-0.009-2.093,0.007-3.145,0.036c-4.205,0.08-8.429,0.359-12.664,0.598c-4.233,0.255-8.474,0.628-12.699,0.993l-0.216,0.019
		l-0.061-0.011c-1.332-0.218-2.618-0.474-3.915-0.758c-1.292-0.287-2.578-0.605-3.851-0.973c-0.635-0.19-1.268-0.389-1.894-0.61
		c-0.626-0.214-1.247-0.454-1.857-0.713c-0.613-0.254-1.209-0.552-1.79-0.869c-0.287-0.175-0.564-0.367-0.84-0.546
		C429.018,525.82,428.781,525.592,428.53,525.382z"/>
</g>
<g>
	<path d="M330.436,473.354c0,0,2.179,1.627,5.993,4.474c1.914,1.412,4.238,3.127,6.904,5.094c2.661,1.975,5.673,4.188,8.994,6.55
		c3.313,2.371,6.903,4.94,10.7,7.657c3.89,2.563,7.888,5.384,12.162,8.132c4.344,2.653,8.827,5.392,13.549,7.728
		c1.186,0.559,2.364,1.172,3.575,1.625c0.603,0.23,1.205,0.523,1.808,0.705l1.804,0.537c0.549,0.159,1.298,0.269,1.938,0.405
		c0.671,0.142,1.326,0.249,1.976,0.344l1.955,0.305l1.991,0.236c2.654,0.316,5.32,0.475,7.96,0.531
		c1.32,0.034,2.621-0.05,3.925-0.07c0.645-0.047,1.276-0.134,1.912-0.196c0.624-0.092,1.291-0.084,1.875-0.254l1.791-0.398
		l0.445-0.097c-0.025,0.01,0.138-0.037-0.044,0.018l0.059-0.021l0.117-0.041l0.235-0.084l0.938-0.335
		c0.286-0.115,0.444-0.237,0.674-0.346c0.236-0.119,0.381-0.18,0.692-0.387c0.446-0.293,0.921-0.647,1.393-1.026
		c1.876-1.534,3.606-3.353,5.117-5.225c1.529-1.854,2.855-3.843,3.705-5.783c0.406-0.961,0.653-1.928,0.631-2.651
		c-0.017-0.349-0.095-0.671-0.173-0.722c0.041,0.035-0.05-0.066-0.092-0.12c-0.041-0.063-0.107-0.13-0.183-0.2
		c-0.125-0.141-0.311-0.281-0.476-0.425c-0.738-0.562-1.646-1.068-2.561-1.441c-0.929-0.371-1.823-0.667-2.53-0.618
		c-1.909,0.002-3.992,0.404-5.646,0.977c-0.226,0.063-0.388,0.161-0.572,0.243c-0.161,0.087-0.411,0.158-0.498,0.254
		c-0.128,0.099-0.228,0.148-0.396,0.268l-0.553,0.496c-0.737,0.654-1.404,1.26-2.044,1.896c-1.28,1.255-2.362,2.556-3.298,3.83
		c-0.938,1.277-1.651,2.574-2.183,3.822c-0.567,1.24-0.881,2.454-1.077,3.568c-0.063,0.577-0.142,1.055-0.186,1.64
		c-0.036,0.506-0.113,1.062-0.197,1.518c-0.016,0.099-0.047,0.225-0.05,0.296c0.009,0.063-0.021,0.121,0,0.192
		c0.04,0.135,0.084,0.29,0.184,0.469c0.171,0.346,0.326,0.661,0.465,0.942c0.565,1.149,0.867,1.762,0.867,1.762l-0.346,0.201
		c0,0-0.391-0.558-1.123-1.603c-0.185-0.265-0.396-0.539-0.618-0.894c-0.113-0.153-0.229-0.374-0.333-0.643
		c-0.05-0.129-0.052-0.298-0.07-0.454c-0.008-0.15,0.01-0.248,0.014-0.379c0.026-0.463,0.035-0.896,0.009-1.45
		c-0.023-0.476-0.012-1.12-0.017-1.73c0.061-2.505,0.931-5.537,2.697-8.528c0.871-1.502,1.968-2.991,3.226-4.452
		c0.623-0.729,1.313-1.463,1.983-2.16l0.506-0.526c0.216-0.19,0.516-0.437,0.782-0.644c0.284-0.245,0.531-0.324,0.804-0.491
		c0.267-0.142,0.542-0.307,0.804-0.4c1.067-0.464,2.144-0.797,3.255-1.059c0.554-0.148,1.122-0.23,1.697-0.347
		c0.611-0.08,1.293-0.18,1.803-0.197l0.206-0.012l0.104-0.006l0.051-0.003l0.138-0.001l0.589,0.031
		c0.355,0.043,0.709,0.095,1.029,0.169c0.653,0.143,1.268,0.325,1.867,0.549c1.204,0.44,2.359,1.002,3.52,1.806
		c0.289,0.223,0.578,0.429,0.868,0.707c0.144,0.127,0.287,0.265,0.432,0.433c0.147,0.173,0.269,0.279,0.458,0.573
		c0.63,0.912,0.798,1.806,0.866,2.645c0.08,1.685-0.343,3.109-0.843,4.418c-1.047,2.596-2.591,4.785-4.273,6.878
		c-1.73,2.06-3.63,3.981-5.852,5.728c-0.56,0.43-1.146,0.856-1.814,1.271c-0.238,0.158-0.687,0.39-1.052,0.549
		c-0.371,0.166-0.793,0.373-1.127,0.489l-0.951,0.299l-0.237,0.074l-0.119,0.037l-0.06,0.02c-0.221,0.068-0.1,0.026-0.166,0.045
		l-0.533,0.1l-2.137,0.391c-0.719,0.164-1.41,0.132-2.117,0.206c-0.702,0.044-1.409,0.109-2.11,0.133
		c-1.391-0.025-2.793,0.021-4.179-0.061c-2.773-0.146-5.534-0.402-8.27-0.815l-2.052-0.302l-2.062-0.38
		c-0.692-0.122-1.373-0.254-2.026-0.411c-0.682-0.166-1.278-0.26-2.027-0.484l-2.069-0.676c-0.683-0.231-1.293-0.547-1.94-0.817
		c-1.301-0.532-2.491-1.194-3.711-1.811c-4.81-2.549-9.251-5.438-13.531-8.217c-2.136-1.395-4.149-2.934-6.166-4.348
		c-2.002-1.439-3.96-2.848-5.865-4.219c-3.703-2.861-7.203-5.566-10.435-8.063c-3.237-2.486-6.168-4.811-8.756-6.884
		c-2.594-2.064-4.855-3.864-6.717-5.347c-3.707-2.985-5.825-4.69-5.825-4.69L330.436,473.354z"/>
</g>
<g>
	<path d="M421.379,530.604c0,0,0.354,0.287,1.02,0.825c0.648,0.554,1.635,1.334,2.819,2.389c0.615,0.497,1.338,0.973,2.09,1.522
		c0.774,0.525,1.528,1.157,2.424,1.738c1.86,1.098,3.804,2.481,6.175,3.608c1.159,0.597,2.316,1.278,3.636,1.793
		c1.303,0.538,2.574,1.202,3.976,1.723c1.41,0.505,2.833,1.064,4.293,1.614c1.495,0.483,3.022,0.979,4.576,1.481l1.167,0.38
		l1.203,0.331c0.803,0.228,1.61,0.456,2.423,0.688c0.813,0.229,1.63,0.461,2.451,0.692c0.833,0.211,1.671,0.422,2.512,0.635
		c3.345,0.879,6.8,1.676,10.248,2.483c3.473,0.786,6.944,1.571,10.362,2.345c1.719,0.369,3.421,0.755,5.099,1.153
		c1.686,0.385,3.35,0.764,4.987,1.138c3.272,0.761,6.437,1.531,9.44,2.268c2.999,0.751,5.831,1.496,8.445,2.201
		c2.611,0.716,5,1.398,7.113,2.032c2.115,0.627,3.948,1.233,5.46,1.72c1.515,0.473,2.691,0.916,3.5,1.188
		c0.804,0.294,1.232,0.45,1.232,0.45s-0.457,0.001-1.313,0.003c-0.853-0.02-2.11-0.003-3.695-0.073
		c-1.587-0.058-3.517-0.111-5.718-0.241c-2.202-0.123-4.684-0.294-7.384-0.511c-5.401-0.448-11.681-1.093-18.387-2.063
		c-3.352-0.461-6.815-1.021-10.322-1.658c-3.513-0.601-7.066-1.392-10.621-2.158c-1.771-0.44-3.542-0.881-5.306-1.32
		c-1.769-0.408-3.505-1.007-5.239-1.496c-0.865-0.259-1.727-0.517-2.584-0.772c-0.85-0.302-1.695-0.602-2.535-0.899
		c-1.674-0.625-3.349-1.121-4.941-1.86c-1.6-0.697-3.184-1.338-4.7-2.057c-1.498-0.783-2.97-1.527-4.377-2.291
		c-1.403-0.775-2.712-1.668-3.986-2.475c-1.288-0.784-2.439-1.71-3.542-2.582c-2.264-1.657-4.036-3.566-5.65-5.134
		c-1.52-1.716-2.741-3.295-3.706-4.558c-0.879-1.32-1.513-2.407-1.97-3.126C421.613,530.995,421.379,530.604,421.379,530.604z"/>
</g>
<path fill="none" stroke="#000000" stroke-miterlimit="10" d="M475.205,526.05c-17.613,3.554-30.752,16.583-27.862,23.561
	c2.271,5.485,13.851,16.854,17.249,19.325"/>
<path fill="none" stroke="#000000" stroke-miterlimit="10" d="M441.219,528.579c-10.188,0.833-16.649,4.806-15.436,8.55
	c1.502,4.638,9.634,17.922,15.436,20.792"/>
<path fill="none" stroke="#000000" stroke-miterlimit="10" d="M502.53,576.488c0,0-24.058-11.336-29.339-19.397
	c-6.43-9.814,37.758-12.962,37.758-12.962"/>
<g>
	<path d="M169.84,519.325c0,0,0.049-0.202,0.143-0.595c0.082-0.393,0.263-0.972,0.389-1.733c0.147-0.754,0.313-1.695,0.185-2.772
		c-0.034-0.258-0.048-0.574-0.099-0.806c-0.077-0.294-0.157-0.598-0.24-0.911c-0.064-0.329-0.221-0.587-0.329-0.895
		c-0.116-0.297-0.235-0.6-0.412-0.912c-1.252-2.515-3.446-5.236-6.202-8.097c-2.782-2.858-6.155-5.819-10.09-8.762
		c-0.971-0.731-1.969-1.452-2.95-1.997c-0.488-0.289-0.969-0.457-1.245-0.526c-0.118-0.024,0.129,0.021,0.078,0.014l-0.062-0.007
		l-0.124-0.013l-0.247-0.026c-0.15-0.011-0.362-0.053-0.463-0.037l-0.732,0.021c-1.167,0.057-2.439,0.239-3.581,0.54
		c-0.305,0.061-0.534,0.173-0.805,0.253c-0.281,0.083-0.398,0.195-0.613,0.272c-0.576,0.345-1.079,0.673-1.634,1.063
		c-2.171,1.53-4.391,3.394-5.932,5.391c-0.371,0.489-0.69,0.998-0.838,1.399c-0.029,0.093-0.105,0.213-0.099,0.272l-0.023,0.104
		l-0.017,0.051l-0.009,0.025c-0.009,0.04,0.044-0.299,0.019-0.12l-0.055,0.569c0,0.134,0.026,0.166,0.025,0.253
		c0.031,0.407,0.128,1.089,0.301,1.702c0.153,0.631,0.382,1.291,0.616,1.947c0.498,1.318,1.116,2.647,1.809,3.92
		c0.353,0.626,0.717,1.261,1.102,1.816c0.095,0.149,0.19,0.268,0.285,0.401l0.32,0.424l0.731,0.942
		c1.923,2.429,3.998,4.881,6.108,7.263c2.13,2.365,4.358,4.688,6.705,6.711c1.164,1.02,2.387,1.935,3.543,2.606l0.216,0.128
		l0.108,0.064l0.054,0.031c-0.279-0.138-0.037-0.02-0.081-0.042l0.568,0.254l1.137,0.508c0.756,0.335,1.532,0.71,2.229,0.909
		c1.436,0.483,2.8,1.025,4.395,1.443l2.31,0.669c0.773,0.216,1.566,0.386,2.347,0.58l2.348,0.567l2.364,0.49l2.359,0.485
		l2.362,0.394c1.574,0.291,3.136,0.481,4.689,0.665c1.568,0.25,3.056,0.272,4.574,0.412c3.188,0.108,6.308,0.167,9.395,0.172
		c6.158-0.018,12.105-0.164,17.638-0.765c2.755-0.317,5.408-0.769,7.827-1.429c0.606-0.164,1.208-0.327,1.751-0.551l0.837-0.308
		l0.052-0.019c-0.025,0.015,0.131-0.061-0.044,0.028l0.109-0.056l0.218-0.112l0.434-0.222l0.861-0.441
		c0.277-0.148,0.493-0.308,0.743-0.459c0.486-0.321,0.958-0.574,1.453-0.938c3.936-2.79,7.398-5.775,10.418-8.43
		c3.003-2.688,5.604-5.072,7.721-7.063c4.217-4.012,6.626-6.305,6.626-6.305s-0.512,0.657-1.471,1.89
		c-0.98,1.214-2.395,3.02-4.289,5.236c-1.888,2.223-4.193,4.917-6.984,7.886c-2.795,2.972-5.969,6.298-9.965,9.55
		c-0.481,0.412-1.086,0.816-1.637,1.229c-0.281,0.199-0.574,0.429-0.851,0.604l-0.827,0.504l-0.417,0.253l-0.208,0.128l-0.105,0.063
		l-0.155,0.079l-0.061,0.027l-0.983,0.451c-0.66,0.324-1.329,0.561-2.005,0.799c-2.708,0.949-5.53,1.537-8.422,2.039
		c-5.786,0.938-11.886,1.445-18.181,1.611c-3.141,0.097-6.354,0.138-9.576,0.131c-3.408-0.087-6.754-0.375-10.059-0.911
		l-2.492-0.375l-2.479-0.468l-2.486-0.479l-2.475-0.583c-0.825-0.201-1.654-0.376-2.479-0.6l-2.472-0.701
		c-1.622-0.416-3.365-1.059-5.068-1.663c-0.893-0.294-1.61-0.655-2.368-1l-1.132-0.52l-0.565-0.26l-0.222-0.108l-0.08-0.047
		l-0.16-0.094l-0.319-0.189c-1.7-1.015-3.115-2.137-4.432-3.304c-2.642-2.33-4.954-4.808-7.173-7.322
		c-2.219-2.521-4.266-5.084-6.229-7.754l-0.71-0.978l-0.384-0.544c-0.131-0.195-0.275-0.396-0.388-0.586
		c-0.496-0.772-0.897-1.53-1.296-2.295c-0.771-1.53-1.433-3.077-1.984-4.691c-0.264-0.818-0.518-1.635-0.705-2.511
		c-0.2-0.884-0.338-1.73-0.367-2.849c0.001-0.296,0.007-0.646,0.027-0.893l0.073-0.567c-0.021,0.132,0.037-0.255,0.043-0.26
		l0.029-0.112l0.061-0.224l0.131-0.444c0.084-0.314,0.211-0.522,0.323-0.78c0.467-0.985,1.024-1.72,1.588-2.397
		c1.136-1.338,2.34-2.404,3.563-3.389c1.226-0.978,2.472-1.853,3.761-2.654c0.635-0.399,1.344-0.809,1.997-1.15
		c0.934-0.442,1.758-0.675,2.534-0.836c1.562-0.317,3.02-0.454,4.539-0.409c0.391,0.008,0.855,0.053,1.272,0.088
		c0.232,0.016,0.347,0.056,0.525,0.082l0.245,0.045l0.122,0.021l0.061,0.012c-0.009-0.004,0.277,0.053,0.198,0.043
		c0.993,0.301,1.698,0.705,2.306,1.108c1.229,0.811,2.233,1.672,3.196,2.508c3.844,3.289,7.062,6.703,9.639,9.912
		c2.594,3.2,4.541,6.305,5.582,9.144c1.166,2.9,0.67,5.399,0.134,6.851c-0.227,0.757-0.496,1.289-0.634,1.67
		C169.918,519.132,169.84,519.325,169.84,519.325z"/>
</g>
<g>
	<path d="M146.386,525.932c-0.251,0.211-0.488,0.438-0.75,0.635c-0.275,0.179-0.553,0.371-0.839,0.546
		c-0.582,0.317-1.178,0.615-1.791,0.869c-0.611,0.259-1.231,0.499-1.858,0.713c-0.626,0.222-1.258,0.42-1.893,0.61
		c-1.272,0.367-2.559,0.686-3.851,0.973c-1.297,0.284-2.583,0.54-3.915,0.758l-0.061,0.011l-0.216-0.019
		c-4.226-0.365-8.466-0.738-12.699-0.993c-4.235-0.238-8.459-0.518-12.665-0.598c-1.052-0.03-2.101-0.045-3.145-0.036
		c-1.046-0.005-2.09-0.001-3.122,0.042c-1.038,0.021-2.068,0.066-3.077,0.14c-0.504,0.036-1.021,0.053-1.515,0.104l-1.462,0.177
		l-0.726,0.09l-0.662,0.146l-0.661,0.139l-0.33,0.068l-0.041,0.008l-0.021,0.005c-0.169,0.045,0.207-0.059,0.159-0.044l-0.094,0.033
		l-0.188,0.066l-1.507,0.531l-0.754,0.266c-0.232,0.096-0.423,0.203-0.638,0.301l-1.251,0.591c-0.415,0.189-0.831,0.378-1.286,0.641
		c-0.888,0.49-1.782,0.955-2.663,1.462l-2.619,1.599l-2.567,1.692c-0.868,0.548-1.67,1.18-2.503,1.769
		c-0.843,0.585-1.624,1.217-2.405,1.845c-0.385,0.315-0.799,0.621-1.162,0.943l-1.063,0.968l-0.534,0.479l-0.067,0.06l-0.034,0.03
		l-0.017,0.015c-0.099,0.098,0.117-0.116,0.088-0.088l-0.136,0.146l-0.272,0.293l-1.087,1.17l-1.087,1.171l-0.972,1.161
		l-1.929,2.314l-3.917,4.922l-3.874,5.013c-2.553,3.367-5.122,6.753-7.631,10.136l-1.196-5.81c2.284,1.307,4.685,2.595,7.048,3.833
		c2.371,1.243,4.762,2.436,7.151,3.511c1.193,0.537,2.389,1.047,3.562,1.488c1.176,0.452,2.326,0.822,3.326,1.066
		c0.213,0.031,0.424,0.068,0.636,0.112l0.08,0.017l0.04,0.009c-0.328-0.021-0.073-0.005-0.138-0.01l0.032,0.002l0.256,0.013
		l0.512,0.026c0.661,0.022,1.416,0.097,2,0.078l1.745-0.047c0.569-0.001,1.256-0.091,1.879-0.13c2.548-0.194,5.158-0.59,7.76-1.022
		c2.605-0.479,5.213-1.019,7.815-1.646c2.604-0.608,5.206-1.275,7.787-2.019c2.585-0.729,5.156-1.518,7.715-2.339
		c2.548-0.841,5.086-1.728,7.569-2.686c1.258-0.465,2.453-0.982,3.686-1.496l3.752-1.644c5.002-2.161,9.959-4.393,14.814-6.807
		c2.421-1.213,4.858-2.407,7.209-3.732c2.358-1.312,4.679-2.696,6.871-4.226c0.569-0.363,1.077-0.784,1.615-1.18
		c0.548-0.391,1.039-0.826,1.534-1.264c1.006-0.867,2.017-1.849,3.006-2.771c0.495-0.469,1.011-0.923,1.495-1.4l1.427-1.458
		c0.495-0.474,0.915-1.008,1.354-1.529l1.335-1.566c-1.349,2.38-2.913,4.704-4.678,6.814c-0.886,1.07-1.715,2.116-2.657,3.172
		c-0.468,0.534-0.939,1.072-1.453,1.549c-0.507,0.485-0.997,1.006-1.531,1.454c-2.077,1.899-4.337,3.53-6.601,5.145
		c-2.271,1.607-4.598,3.111-6.954,4.568c-4.733,2.868-9.564,5.547-14.419,8.144l-3.652,1.901c-1.256,0.626-2.535,1.28-3.81,1.851
		c-2.548,1.2-5.139,2.23-7.734,3.258c-2.604,0.995-5.218,1.964-7.871,2.822c-2.644,0.884-5.315,1.692-8.012,2.444
		c-2.695,0.754-5.433,1.396-8.193,1.995c-2.781,0.548-5.573,1.079-8.48,1.343c-0.741,0.063-1.413,0.166-2.212,0.191l-2.358,0.089
		c-0.783,0.023-1.395-0.032-2.101-0.044l-0.513-0.017l-0.256-0.009l-0.233-0.014l-0.087-0.012l-0.174-0.023l-1.391-0.211
		c-1.667-0.365-3.132-0.823-4.513-1.347c-1.391-0.515-2.717-1.072-4.023-1.649c-2.609-1.156-5.125-2.395-7.609-3.677
		c-2.488-1.294-4.895-2.624-7.356-4.044l-3.875-2.237l2.68-3.572c2.584-3.444,5.179-6.834,7.852-10.194l4.032-5.025
		c1.37-1.671,2.751-3.309,4.17-4.971l2.244-2.523l1.123-1.25l1.122-1.137l1.122-1.137l0.28-0.284l0.14-0.142l0.125-0.121
		l0.021-0.019l0.042-0.035l0.083-0.071l0.673-0.566l1.351-1.125c0.451-0.365,0.908-0.675,1.361-1.015
		c0.908-0.67,1.815-1.337,2.747-1.93c0.932-0.603,1.837-1.249,2.794-1.801c0.95-0.566,1.884-1.153,2.85-1.692l2.926-1.574
		c0.993-0.503,2.016-0.97,3.021-1.453c0.482-0.244,1.047-0.472,1.615-0.694l1.686-0.665c0.278-0.105,0.569-0.228,0.836-0.313
		l0.769-0.216l1.539-0.431l0.192-0.054l0.096-0.027c-0.032,0.008,0.36-0.098,0.208-0.055l0.029-0.004l0.057-0.009l0.457-0.069
		l0.914-0.134l0.912-0.129l0.865-0.053l1.721-0.093c0.568-0.02,1.118-0.002,1.677-0.005c1.12-0.015,2.219,0.039,3.311,0.104
		c1.098,0.047,2.183,0.133,3.264,0.228c1.084,0.081,2.162,0.187,3.234,0.306c2.151,0.216,4.285,0.49,6.415,0.776
		c2.131,0.277,4.25,0.616,6.364,0.977c4.228,0.732,8.434,1.475,12.628,2.399l-0.276-0.008c1.268-0.044,2.573-0.134,3.858-0.247
		c1.29-0.115,2.574-0.271,3.855-0.458c0.64-0.092,1.28-0.191,1.915-0.314c0.637-0.115,1.268-0.258,1.894-0.418
		c0.629-0.156,1.24-0.356,1.85-0.576l0.886-0.383C145.831,526.283,146.104,526.097,146.386,525.932z"/>
</g>
<g>
	<path d="M244.727,474.22c0,0-2.118,1.705-5.824,4.69c-1.862,1.482-4.123,3.282-6.717,5.347c-2.588,2.073-5.52,4.397-8.757,6.884
		c-3.231,2.497-6.731,5.202-10.434,8.063c-1.906,1.371-3.864,2.779-5.866,4.219c-2.016,1.414-4.03,2.953-6.166,4.348
		c-4.28,2.778-8.722,5.668-13.532,8.217c-1.219,0.616-2.411,1.278-3.71,1.811c-0.648,0.271-1.258,0.587-1.941,0.817l-2.068,0.676
		c-0.749,0.225-1.347,0.318-2.028,0.484c-0.653,0.157-1.334,0.289-2.026,0.411l-2.063,0.38l-2.052,0.302
		c-2.735,0.413-5.496,0.669-8.269,0.815c-1.385,0.081-2.789,0.035-4.179,0.061c-0.701-0.023-1.407-0.089-2.11-0.133
		c-0.707-0.074-1.398-0.042-2.116-0.206l-2.137-0.391l-0.533-0.1c-0.066-0.019,0.055,0.023-0.166-0.045l-0.06-0.019l-0.119-0.038
		l-0.238-0.074l-0.95-0.299c-0.334-0.116-0.756-0.323-1.127-0.489c-0.365-0.159-0.813-0.391-1.052-0.549
		c-0.668-0.414-1.255-0.84-1.814-1.271c-2.221-1.747-4.121-3.668-5.851-5.728c-1.683-2.093-3.227-4.282-4.273-6.878
		c-0.5-1.309-0.923-2.733-0.843-4.418c0.069-0.839,0.236-1.732,0.866-2.645c0.189-0.294,0.311-0.4,0.458-0.573
		c0.144-0.168,0.288-0.306,0.432-0.433c0.29-0.278,0.578-0.484,0.868-0.707c1.16-0.804,2.315-1.365,3.519-1.806
		c0.599-0.224,1.214-0.406,1.867-0.549c0.321-0.074,0.674-0.126,1.029-0.169l0.589-0.031l0.137,0.001l0.052,0.003l0.103,0.006
		l0.206,0.012c0.51,0.018,1.191,0.117,1.803,0.197c0.575,0.116,1.144,0.198,1.697,0.347c1.111,0.262,2.188,0.595,3.254,1.059
		c0.262,0.094,0.538,0.259,0.804,0.4c0.273,0.167,0.52,0.246,0.805,0.491c0.267,0.207,0.566,0.453,0.782,0.644l0.505,0.526
		c0.671,0.697,1.361,1.432,1.984,2.16c1.258,1.462,2.354,2.95,3.225,4.452c1.767,2.991,2.637,6.023,2.697,8.528
		c-0.005,0.61,0.006,1.255-0.017,1.73c-0.026,0.554-0.017,0.987,0.01,1.45c0.004,0.131,0.021,0.229,0.013,0.379
		c-0.019,0.156-0.02,0.325-0.07,0.454c-0.104,0.269-0.22,0.489-0.333,0.643c-0.223,0.354-0.434,0.629-0.618,0.894
		c-0.732,1.045-1.123,1.603-1.123,1.603l-0.346-0.201c0,0,0.301-0.612,0.867-1.762c0.139-0.281,0.294-0.597,0.465-0.942
		c0.099-0.179,0.144-0.334,0.183-0.469c0.021-0.071-0.008-0.129,0-0.192c-0.002-0.071-0.034-0.197-0.049-0.296
		c-0.084-0.455-0.162-1.012-0.198-1.518c-0.043-0.585-0.123-1.063-0.185-1.64c-0.197-1.114-0.511-2.328-1.077-3.568
		c-0.532-1.248-1.245-2.545-2.183-3.822c-0.936-1.274-2.018-2.575-3.299-3.83c-0.639-0.636-1.306-1.241-2.043-1.896l-0.553-0.496
		c-0.168-0.119-0.268-0.169-0.396-0.268c-0.087-0.096-0.337-0.167-0.498-0.254c-0.186-0.082-0.347-0.181-0.573-0.243
		c-1.653-0.572-3.736-0.975-5.645-0.977c-0.707-0.049-1.602,0.247-2.531,0.618c-0.915,0.373-1.822,0.88-2.56,1.441
		c-0.165,0.144-0.35,0.284-0.476,0.425c-0.076,0.07-0.141,0.138-0.183,0.2c-0.042,0.054-0.133,0.155-0.092,0.12
		c-0.078,0.051-0.156,0.373-0.172,0.722c-0.023,0.724,0.224,1.69,0.63,2.651c0.85,1.94,2.176,3.93,3.706,5.783
		c1.51,1.872,3.24,3.69,5.117,5.225c0.472,0.379,0.946,0.733,1.393,1.026c0.312,0.207,0.456,0.268,0.692,0.387
		c0.23,0.108,0.388,0.23,0.674,0.346l0.938,0.335l0.235,0.083l0.118,0.043l0.059,0.021c-0.182-0.055-0.018-0.008-0.044-0.018
		l0.446,0.097l1.791,0.398c0.583,0.17,1.25,0.162,1.875,0.254c0.636,0.063,1.268,0.149,1.912,0.196
		c1.304,0.021,2.605,0.104,3.926,0.07c2.639-0.057,5.306-0.216,7.959-0.531l1.991-0.236l1.956-0.305
		c0.649-0.095,1.304-0.202,1.975-0.344c0.64-0.137,1.388-0.246,1.937-0.405l1.805-0.537c0.603-0.182,1.205-0.475,1.807-0.705
		c1.211-0.453,2.39-1.066,3.575-1.625c4.721-2.336,9.205-5.074,13.549-7.728c4.273-2.748,8.272-5.569,12.162-8.132
		c3.797-2.717,7.386-5.286,10.7-7.657c3.322-2.362,6.334-4.575,8.994-6.55c2.667-1.967,4.991-3.682,6.905-5.094
		c3.813-2.847,5.993-4.474,5.993-4.474L244.727,474.22z"/>
</g>
<g>
	<path d="M153.538,531.153c0,0-0.235,0.392-0.675,1.126c-0.457,0.719-1.091,1.806-1.97,3.126c-0.965,1.263-2.187,2.842-3.706,4.558
		c-1.615,1.567-3.386,3.477-5.65,5.134c-1.103,0.872-2.255,1.798-3.542,2.583c-1.274,0.806-2.583,1.698-3.986,2.474
		c-1.408,0.764-2.879,1.508-4.377,2.292c-1.516,0.718-3.101,1.357-4.701,2.057c-1.592,0.738-3.267,1.234-4.941,1.859
		c-0.84,0.298-1.686,0.598-2.535,0.899c-0.857,0.256-1.719,0.514-2.584,0.772c-1.734,0.489-3.471,1.088-5.239,1.496
		c-1.764,0.439-3.536,0.88-5.307,1.32c-3.555,0.767-7.108,1.558-10.621,2.158c-3.507,0.638-6.971,1.197-10.322,1.658
		c-6.707,0.97-12.986,1.614-18.387,2.063c-2.701,0.217-5.181,0.388-7.384,0.511c-2.201,0.13-4.131,0.185-5.718,0.241
		c-1.584,0.07-2.842,0.054-3.695,0.073c-0.856-0.002-1.313-0.003-1.313-0.003s0.429-0.156,1.233-0.449
		c0.808-0.271,1.985-0.716,3.499-1.188c1.512-0.486,3.345-1.093,5.46-1.72c2.113-0.634,4.502-1.316,7.114-2.032
		c2.614-0.705,5.446-1.45,8.445-2.201c3.004-0.736,6.168-1.507,9.44-2.268c1.637-0.374,3.302-0.753,4.987-1.138
		c1.679-0.398,3.38-0.784,5.099-1.153c3.418-0.773,6.89-1.559,10.362-2.345c3.448-0.808,6.903-1.604,10.249-2.483
		c0.841-0.212,1.678-0.424,2.511-0.635c0.821-0.231,1.639-0.463,2.451-0.692c0.813-0.23,1.621-0.46,2.423-0.688l1.203-0.331
		l1.167-0.38c1.554-0.503,3.082-0.998,4.577-1.481c1.459-0.55,2.882-1.108,4.292-1.614c1.401-0.521,2.674-1.185,3.976-1.723
		c1.32-0.515,2.477-1.196,3.636-1.793c2.372-1.127,4.314-2.511,6.176-3.608c0.895-0.581,1.648-1.213,2.423-1.738
		c0.752-0.55,1.475-1.025,2.09-1.522c1.185-1.055,2.171-1.835,2.819-2.389C153.183,531.44,153.538,531.153,153.538,531.153z"/>
</g>
<path fill="none" stroke="#000000" stroke-miterlimit="10" d="M99.711,526.6c17.613,3.554,30.752,16.583,27.862,23.561
	c-2.271,5.485-13.851,16.854-17.249,19.325"/>
<path fill="none" stroke="#000000" stroke-miterlimit="10" d="M133.698,529.129c10.188,0.833,16.649,4.806,15.436,8.55
	c-1.502,4.638-9.634,17.922-15.436,20.792"/>
<path fill="none" stroke="#000000" stroke-miterlimit="10" d="M72.386,577.038c0,0,24.058-11.336,29.339-19.397
	c6.43-9.814-37.758-12.962-37.758-12.962"/>
<path fill="none" stroke="#000000" stroke-width="4" stroke-miterlimit="10" d="M389.392,539.485
	c-27.76,20.626-62.15,32.829-99.392,32.829c-36.465,0-70.196-11.7-97.646-31.551"/>
<g>
	<g>
		<path d="M95.771,487.728c1.172-0.307,2.336,0.112,3.508,1.236c1.173,1.127,2.185,2.809,3.087,5.062
			c0.903,2.256,1.297,4.127,1.146,5.627c-0.152,1.501-0.733,2.438-1.775,2.793c-0.208,0.071-0.313,0.104-0.522,0.175
			c-0.559-1.271-0.832-1.907-1.369-3.179c0.18-0.058,0.27-0.088,0.449-0.146c0.749-0.241,1.146-0.837,1.206-1.784
			c0.06-0.947-0.131-1.962-0.567-3.052c-0.581-1.451-1.207-2.459-1.897-3.02c-0.69-0.561-1.339-0.76-1.947-0.591
			c-0.506,0.141-0.822,0.684-0.933,1.637s-0.049,2.291,0.248,3.957c0.418,2.349,0.632,4.139,0.505,5.302
			c-0.127,1.162-0.554,1.876-1.299,2.126c-1.043,0.35-2.193-0.053-3.43-1.23c-1.236-1.175-2.252-2.734-3.019-4.656
			c-0.995-2.495-1.275-4.409-0.896-5.719c0.379-1.309,1.036-2.077,1.952-2.318c0.473,1.301,0.716,1.952,1.21,3.254
			c-0.592,0.063-0.994,0.487-1.193,1.279c-0.2,0.794-0.057,1.813,0.437,3.051c0.457,1.145,0.991,2.004,1.591,2.567
			c0.602,0.565,1.178,0.758,1.728,0.583c0.45-0.143,0.727-0.526,0.838-1.146c0.111-0.617-0.071-2.092-0.452-4.367
			c-0.364-2.177-0.402-3.924-0.178-5.206S94.957,487.94,95.771,487.728z"/>
		<path d="M82.185,471.861c0.612,2.271,0.935,3.405,1.613,5.681c4.727-0.945,7.088-1.42,11.812-2.38
			c0.37,1.239,0.561,1.857,0.952,3.098c-4.703,1.028-7.055,1.541-11.761,2.557c0.716,2.277,1.088,3.416,1.871,5.698
			c-0.584,0.143-0.875,0.214-1.458,0.356c-2.027-5.914-2.928-8.865-4.514-14.75C81.292,472.018,81.59,471.965,82.185,471.861z"/>
		<path d="M86.194,452.892c1.272-0.118,2.38,0.352,3.333,1.391c0.955,1.041,1.664,2.751,2.187,5.155
			c0.523,2.405,0.581,4.221,0.121,5.452c-0.46,1.234-1.308,1.96-2.564,2.16c-3.801,0.604-5.701,0.904-9.503,1.501
			c-0.331-1.312-0.49-1.964-0.799-3.273c3.814-0.542,5.72-0.816,9.532-1.366c0.894-0.129,1.462-0.587,1.716-1.366
			c0.253-0.778,0.25-1.75-0.003-2.917c-0.253-1.164-0.658-2.079-1.228-2.751c-0.568-0.67-1.299-0.962-2.199-0.865
			c-3.84,0.412-5.76,0.616-9.601,1.02c-0.256-1.305-0.381-1.955-0.617-3.257C80.418,453.425,82.345,453.249,86.194,452.892z"/>
		<path d="M80.966,435.404c2.461-0.03,4.292,0.818,5.521,2.517c1.229,1.699,2.015,3.983,2.431,6.897
			c0.257,1.802,0.397,2.704,0.696,4.511c-5.451,0.431-8.178,0.637-13.632,1.05c-0.316-1.921-0.461-2.877-0.732-4.792
			c-0.492-3.471-0.24-6.042,0.659-7.688C76.806,436.256,78.504,435.435,80.966,435.404z M81.299,438.664
			c-1.978,0.054-3.31,0.636-3.98,1.771s-0.867,2.828-0.549,5.066c0.087,0.615,0.131,0.925,0.223,1.541
			c4.25-0.263,6.374-0.398,10.623-0.671c-0.088-0.588-0.131-0.881-0.215-1.468c-0.305-2.135-0.886-3.711-1.787-4.753
			C84.713,439.109,83.276,438.61,81.299,438.664z"/>
		<path d="M86.914,418.739c0.058,5.282,0.173,7.942,0.592,13.292c-5.496-0.005-8.244-0.014-13.741-0.036
			c-0.416-5.407-0.536-8.095-0.606-13.438c0.612,0.038,0.917,0.057,1.529,0.095c0.054,4.05,0.129,6.082,0.383,10.17
			c1.705,0.03,2.558,0.047,4.263,0.075c-0.23-3.687-0.304-5.525-0.368-9.181c0.612,0.035,0.918,0.052,1.53,0.087
			c0.064,3.631,0.138,5.457,0.367,9.119c1.962,0.032,2.943,0.046,4.905,0.076c-0.262-4.161-0.337-6.233-0.382-10.354
			C85.996,418.683,86.302,418.702,86.914,418.739z"/>
		<path d="M87.4,402.571c-0.09,1.271-0.131,1.908-0.202,3.184c-4.137,2.323-6.185,3.552-10.233,6.147
			c-0.001,0.054-0.001,0.081-0.002,0.134c3.989,0.362,5.983,0.542,9.973,0.896c-0.022,1.184-0.028,1.776-0.033,2.963
			c-5.504-0.413-8.255-0.624-13.759-1.052c0.006-1.372,0.015-2.056,0.043-3.423c4.052-2.638,6.104-3.891,10.246-6.256
			c0.003-0.052,0.005-0.077,0.008-0.128c-3.982-0.492-5.973-0.741-9.954-1.242c0.072-1.247,0.111-1.869,0.201-3.112
			C79.171,401.447,81.915,401.824,87.4,402.571z"/>
		<path d="M77.148,383.902c-0.328,2.1-0.479,3.154-0.754,5.269c4.845,0.926,7.268,1.387,12.114,2.301
			c-0.148,1.151-0.219,1.727-0.351,2.883c-4.855-0.849-7.28-1.276-12.133-2.139c-0.244,2.124-0.354,3.19-0.543,5.328
			c-0.608-0.093-0.914-0.141-1.522-0.234c0.492-5.542,0.831-8.291,1.68-13.733C76.243,383.708,76.545,383.773,77.148,383.902z"/>
		<path d="M88.616,369.443c1.199,0.35,2.005,1.221,2.437,2.596c0.433,1.376,0.424,3.072,0.007,5.109
			c-0.418,2.039-1.081,3.547-2.025,4.529c-0.946,0.983-1.968,1.362-3.077,1.11c-0.222-0.05-0.332-0.076-0.554-0.126
			c0.198-1.161,0.299-1.741,0.514-2.896c0.189,0.046,0.285,0.068,0.474,0.114c0.79,0.19,1.466-0.038,2.029-0.679
			c0.564-0.641,0.942-1.452,1.145-2.437c0.269-1.312,0.256-2.333-0.052-3.069s-0.775-1.194-1.402-1.369
			c-0.522-0.145-1.091,0.091-1.701,0.718c-0.608,0.627-1.272,1.613-1.907,2.939c-0.893,1.866-1.677,3.234-2.418,3.991
			c-0.741,0.757-1.504,1.053-2.295,0.87c-1.108-0.256-1.899-1.091-2.354-2.517c-0.453-1.424-0.507-3.016-0.149-4.753
			c0.465-2.255,1.239-3.765,2.275-4.52c1.035-0.754,2.026-0.985,2.964-0.713c-0.278,1.165-0.411,1.749-0.672,2.919
			c-0.556-0.242-1.138-0.134-1.739,0.335c-0.602,0.47-1.024,1.269-1.255,2.388c-0.213,1.035-0.204,1.901,0.021,2.59
			c0.226,0.69,0.629,1.104,1.208,1.246c0.474,0.116,0.928-0.021,1.36-0.405c0.431-0.383,1.064-1.514,1.951-3.316
			c0.849-1.726,1.752-2.999,2.636-3.81C86.918,369.476,87.783,369.2,88.616,369.443z"/>
		<path d="M77.823,361.69c0.449-1.702,0.683-2.549,1.166-4.238c1.36,0.457,2.04,0.685,3.4,1.14c1.115,0.835,1.63,2.189,1.573,4.076
			c-0.054,0.2-0.081,0.299-0.134,0.5c-0.404-0.127-0.606-0.191-1.01-0.318c0.024-1.358-0.585-2.196-1.848-2.515
			c-0.238,0.863-0.354,1.296-0.583,2.163C79.362,362.176,78.849,362.014,77.823,361.69z"/>
		<path d="M105.944,305.822c-2.199,3.604-3.256,5.436-5.283,9.149c1.584,0.921,2.375,1.38,3.96,2.3
			c1.501-2.752,2.277-4.115,3.875-6.807c0.527,0.331,0.792,0.496,1.318,0.826c-1.587,2.674-2.357,4.026-3.848,6.76
			c2.179,1.263,3.268,1.893,5.449,3.153c-0.537,0.986-0.804,1.481-1.328,2.475c-4.878-2.736-7.313-4.106-12.184-6.858
			c2.549-4.823,3.898-7.192,6.733-11.838C105.16,305.319,105.421,305.485,105.944,305.822z"/>
		<path d="M124.928,299.649c-2.941,4.114-4.352,6.218-7.044,10.509c-4.675-3.077-7.011-4.618-11.678-7.71
			c0.634-1.009,0.956-1.511,1.603-2.51c4.113,2.801,6.17,4.198,10.291,6.987c2.156-3.335,3.274-4.977,5.582-8.203
			C124.18,299.093,124.429,299.278,124.928,299.649z"/>
		<path d="M129.251,282.557c1.941,1.678,2.951,3.342,3.055,4.978c0.104,1.639-0.497,3.266-1.792,4.922
			c-1.297,1.658-2.732,2.631-4.347,2.928c-1.615,0.296-3.445-0.316-5.485-1.873c-2.039-1.556-3.121-3.178-3.214-4.877
			c-0.095-1.699,0.545-3.452,1.928-5.217c1.381-1.763,2.904-2.771,4.522-3.02C125.532,280.148,127.311,280.879,129.251,282.557z
			 M127.341,284.877c-1.754-1.477-3.142-2.148-4.167-2.006c-1.024,0.143-1.888,0.655-2.573,1.529
			c-0.687,0.877-0.998,1.864-0.934,2.948c0.064,1.086,1.005,2.335,2.809,3.749c1.804,1.415,3.233,2.032,4.283,1.87
			c1.048-0.162,1.893-0.656,2.545-1.491c0.651-0.833,0.926-1.769,0.82-2.814S129.095,286.353,127.341,284.877z"/>
		<path d="M135.476,265.26c3.208,4.831,4.84,7.222,8.165,11.952c-0.667,0.704-0.997,1.057-1.655,1.768
			c-3.626-2.253-5.451-3.366-9.123-5.56c-0.068,0.075-0.102,0.113-0.17,0.188c2.446,3.544,3.687,5.302,6.202,8.785
			c-0.643,0.726-0.963,1.091-1.598,1.824c-4.922-2.971-7.401-4.432-12.394-7.304c0.734-0.867,1.103-1.298,1.847-2.156
			c3.027,1.959,4.536,2.946,7.541,4.935c0.065-0.075,0.098-0.112,0.164-0.187c-2.15-2.961-3.213-4.451-5.314-7.457
			c0.758-0.846,1.139-1.265,1.907-2.101c3.112,1.891,4.659,2.845,7.739,4.778c0.068-0.073,0.102-0.109,0.17-0.181
			c-2.196-2.878-3.285-4.325-5.444-7.237C134.292,266.483,134.685,266.073,135.476,265.26z"/>
		<path d="M155.933,265.01c-3.676,3.302-5.469,5.006-8.951,8.517c-3.921-4-5.879-6.001-9.79-10.014
			c3.526-3.549,5.337-5.275,9.05-8.624c0.41,0.468,0.615,0.702,1.025,1.17c-2.813,2.538-4.193,3.837-6.899,6.492
			c1.196,1.258,1.795,1.888,2.992,3.146c2.439-2.394,3.681-3.569,6.209-5.867c0.412,0.467,0.619,0.701,1.031,1.167
			c-2.511,2.282-3.745,3.447-6.167,5.825c1.379,1.446,2.069,2.17,3.449,3.615c2.751-2.702,4.157-4.023,7.024-6.599
			C155.317,264.306,155.523,264.542,155.933,265.01z"/>
		<path d="M168.208,254.781c-0.92,0.71-1.376,1.069-2.287,1.791c-2.851-0.832-4.29-1.228-7.191-1.974
			c-0.997,0.825-1.493,1.242-2.478,2.081c1.548,1.866,2.322,2.797,3.872,4.661c-0.848,0.723-1.268,1.087-2.106,1.821
			c-3.636-4.261-5.453-6.394-9.078-10.666c1.94-1.695,2.922-2.53,4.909-4.169c1.589-1.311,3.095-2.109,4.484-2.406
			c1.39-0.296,2.51,0.134,3.365,1.267c0.659,0.872,0.835,1.804,0.545,2.795c-0.292,0.993-0.806,1.888-1.544,2.693
			C163.731,253.47,165.233,253.892,168.208,254.781z M159.411,248.984c-0.468-0.604-1.12-0.853-1.951-0.745
			c-0.832,0.108-1.882,0.674-3.128,1.708c-0.866,0.719-1.298,1.082-2.156,1.812c1.232,1.489,1.85,2.233,3.083,3.721
			c1.068-0.91,1.606-1.36,2.689-2.253c0.773-0.638,1.341-1.33,1.709-2.081C160.024,250.396,159.947,249.675,159.411,248.984z"/>
		<path d="M194.336,237.519c-1.014,0.567-1.521,0.855-2.527,1.436c-1.443-1.17-2.17-1.75-3.633-2.903
			c-1.872,1.101-2.802,1.663-4.646,2.81c0.317,1.847,0.482,2.767,0.826,4.604c-0.981,0.622-1.47,0.937-2.442,1.572
			c-1.029-6.094-1.465-9.173-2.176-15.379c0.879-0.538,1.32-0.805,2.206-1.333C187.012,231.899,189.492,233.739,194.336,237.519z
			 M186.864,235.02c-1.687-1.322-2.538-1.978-4.25-3.277c-0.087,0.053-0.129,0.078-0.216,0.131c0.323,2.139,0.493,3.205,0.852,5.331
			C184.687,236.317,185.41,235.88,186.864,235.02z"/>
		<path d="M207.139,230.926c-1.095,0.517-1.641,0.778-2.728,1.311c-4.161-2.479-6.285-3.675-10.621-5.972
			c-0.045,0.024-0.068,0.037-0.113,0.061c1.875,3.6,2.814,5.397,4.696,8.993c-0.984,0.522-1.475,0.788-2.451,1.323
			c-2.657-4.926-3.983-7.39-6.628-12.324c1.13-0.618,1.697-0.924,2.835-1.525c4.374,2.28,6.519,3.468,10.718,5.931
			c0.044-0.022,0.067-0.032,0.111-0.054c-1.762-3.655-2.643-5.485-4.397-9.144c1.065-0.519,1.598-0.774,2.67-1.279
			C203.587,223.322,204.77,225.857,207.139,230.926z"/>
		<path d="M219.27,218.214c0.89,2.342,0.77,4.291-0.318,5.863c-1.088,1.571-2.851,2.856-5.299,3.91
			c-1.514,0.652-2.267,0.984-3.767,1.666c-2.298-5.1-3.444-7.65-5.729-12.756c1.597-0.724,2.399-1.078,4.01-1.77
			c2.92-1.254,5.31-1.617,7.097-1.147C217.05,214.449,218.38,215.872,219.27,218.214z M216.47,219.302
			c-0.741-1.874-1.73-3.008-2.981-3.384s-2.832-0.17-4.713,0.638c-0.518,0.222-0.776,0.334-1.293,0.56
			c1.727,3.994,2.593,5.989,4.328,9.978c0.492-0.216,0.738-0.322,1.231-0.535c1.792-0.771,2.995-1.693,3.609-2.794
			C217.266,222.664,217.211,221.176,216.47,219.302z"/>
		<path d="M251.576,215.884c-0.956,0.204-1.433,0.308-2.386,0.523c-0.917-3.87-1.374-5.805-2.283-9.677
			c-0.1,0.022-0.149,0.033-0.249,0.056c-0.281,4.141-0.393,6.211-0.557,10.345c-0.758,0.185-1.137,0.277-1.893,0.469
			c-2.142-3.563-3.236-5.333-5.469-8.855c-0.099,0.026-0.146,0.039-0.245,0.065c1.058,3.838,1.586,5.755,2.651,9.591
			c-0.94,0.254-1.409,0.383-2.346,0.648c-1.553-5.361-2.326-8.041-3.865-13.406c1.546-0.436,2.322-0.646,3.877-1.053
			c2.058,3.272,3.067,4.917,5.048,8.223c0.097-0.024,0.145-0.036,0.241-0.06c0.151-3.833,0.251-5.753,0.502-9.593
			c1.568-0.364,2.355-0.538,3.933-0.872C249.745,207.729,250.353,210.446,251.576,215.884z"/>
		<path d="M261.8,213.985c-1.114,0.177-1.671,0.269-2.781,0.461c-1.032-5.471-1.544-8.207-2.561-13.681
			c1.182-0.204,1.773-0.3,2.959-0.487C260.363,205.763,260.84,208.503,261.8,213.985z"/>
		<path d="M282.376,211.822c-1.237,0.064-1.855,0.103-3.089,0.186c-3.083-3.824-4.685-5.709-7.995-9.42
			c-0.051,0.005-0.076,0.008-0.127,0.013c0.49,3.999,0.737,5.997,1.235,9.996c-1.127,0.116-1.69,0.179-2.814,0.311
			c-0.76-5.507-1.137-8.26-1.882-13.768c1.301-0.152,1.954-0.224,3.259-0.356c3.353,3.709,4.973,5.595,8.1,9.417
			c0.05-0.003,0.077-0.005,0.127-0.008c-0.362-4.007-0.542-6.011-0.895-10.02c1.209-0.079,1.814-0.113,3.026-0.174
			C281.735,203.529,281.946,206.292,282.376,211.822z"/>
		<path d="M293.314,211.565c-1.148-0.005-1.724-0.005-2.87,0.006c-0.222-5.532-0.328-8.296-0.534-13.828
			c1.22-0.011,1.832-0.013,3.054-0.006C293.097,203.268,293.166,206.033,293.314,211.565z"/>
		<path d="M315.556,212.94c-1.213-0.145-1.818-0.212-3.03-0.338c-0.6-1.777-0.904-2.665-1.529-4.438
			c-2.264-0.215-3.397-0.306-5.654-0.455c-0.769,1.662-1.146,2.495-1.884,4.165c-1.206-0.068-1.809-0.097-3.013-0.147
			c2.544-5.485,3.905-8.204,6.803-13.578c1.072,0.08,1.608,0.124,2.683,0.218C312.333,204.171,313.459,207.087,315.556,212.94z
			 M310.432,206.575c-0.725-2.039-1.096-3.057-1.854-5.09c-0.105-0.009-0.159-0.014-0.265-0.022
			c-0.931,1.896-1.387,2.848-2.278,4.757C307.791,206.342,308.671,206.414,310.432,206.575z"/>
		<path d="M331.461,211.592c-0.186,1.215-0.956,2.049-2.288,2.528c-1.331,0.479-3.049,0.529-5.158,0.183
			c-2.11-0.347-3.713-0.955-4.828-1.865c-1.116-0.911-1.635-1.92-1.537-3.042c0.02-0.224,0.032-0.336,0.052-0.561
			c1.187,0.153,1.779,0.234,2.967,0.405c-0.02,0.192-0.027,0.289-0.047,0.481c-0.08,0.799,0.24,1.467,0.962,2.009
			c0.722,0.542,1.592,0.891,2.612,1.058c1.359,0.223,2.389,0.175,3.088-0.159s1.1-0.817,1.188-1.452
			c0.073-0.528-0.249-1.093-0.968-1.683c-0.72-0.59-1.805-1.22-3.232-1.811c-2.004-0.829-3.484-1.563-4.347-2.277
			c-0.861-0.714-1.262-1.468-1.189-2.269c0.102-1.121,0.826-1.945,2.192-2.454c1.364-0.508,2.957-0.62,4.759-0.322
			c2.34,0.387,3.974,1.114,4.885,2.129c0.91,1.015,1.289,2.005,1.146,2.955c-1.222-0.242-1.829-0.359-3.05-0.582
			c0.166-0.566-0.029-1.146-0.589-1.734c-0.561-0.588-1.425-0.984-2.585-1.176c-1.072-0.177-1.941-0.136-2.603,0.115
			c-0.661,0.252-1.022,0.671-1.084,1.256c-0.05,0.479,0.156,0.928,0.602,1.347c0.444,0.418,1.667,1.012,3.61,1.839
			c1.861,0.792,3.271,1.656,4.22,2.517C331.187,209.89,331.59,210.748,331.461,211.592z"/>
		<path d="M348.772,214.214c-0.553,1.939-1.568,3.13-3.033,3.601c-1.465,0.471-3.074,0.474-4.853,0.021
			c-2.03-0.518-3.668-1.437-4.938-2.789s-1.73-3.152-1.354-5.414c0.411-2.472,1.444-4.161,3.136-5.033
			c1.689-0.87,3.726-1.021,6.072-0.417c1.984,0.51,3.544,1.394,4.65,2.616c1.104,1.221,1.416,2.6,0.961,4.124
			c-1.165-0.34-1.749-0.505-2.914-0.827c0.254-1.141,0.136-2.085-0.363-2.825s-1.386-1.281-2.641-1.604
			c-1.435-0.369-2.659-0.213-3.668,0.447c-1.01,0.661-1.692,2.019-2.063,4.064c-0.343,1.887-0.172,3.306,0.501,4.259
			s1.643,1.584,2.922,1.911c0.938,0.239,1.846,0.19,2.734-0.148c0.888-0.338,1.506-1.28,1.852-2.837
			C346.973,213.693,347.573,213.864,348.772,214.214z"/>
		<path d="M364.288,225.169c-1.218-0.472-1.825-0.702-3.043-1.152c-0.213-1.868-0.327-2.802-0.567-4.672
			c-2.279-0.82-3.42-1.212-5.701-1.959c-1.165,1.388-1.742,2.085-2.878,3.491c-1.22-0.387-1.827-0.575-3.047-0.941
			c3.846-4.589,5.855-6.835,10.049-11.211c1.083,0.365,1.626,0.553,2.708,0.934C362.959,215.875,363.455,218.978,364.288,225.169z
			 M360.461,217.667c-0.282-2.152-0.435-3.229-0.752-5.384c-0.106-0.037-0.157-0.055-0.264-0.092
			c-1.388,1.568-2.071,2.357-3.419,3.949C357.801,216.729,358.688,217.036,360.461,217.667z"/>
		<path d="M383.483,223.294c-0.49,1.159-1.492,1.78-2.985,1.887c-1.495,0.108-3.311-0.332-5.47-1.285
			c-1.504-0.664-2.257-0.987-3.762-1.618c-0.714,1.993-1.071,2.989-1.783,4.984c-1.165-0.487-1.749-0.725-2.915-1.192
			c1.742-5.123,2.618-7.683,4.377-12.797c2.806,1.129,4.208,1.72,7.008,2.957c2.242,0.991,3.856,2.149,4.824,3.417
			C383.744,220.915,383.974,222.134,383.483,223.294z M380.449,221.857c0.374-0.923,0.233-1.744-0.43-2.452
			c-0.664-0.707-1.8-1.425-3.405-2.127c-1.23-0.538-1.845-0.802-3.076-1.318c-0.707,1.962-1.06,2.943-1.765,4.906
			c1.202,0.504,1.802,0.762,3.003,1.286c1.567,0.685,2.809,1.044,3.729,1.062S380.075,222.782,380.449,221.857z"/>
		<path d="M395.669,240.347c-5.099-2.979-7.66-4.365-12.798-6.938c2.163-4.924,3.245-7.382,5.425-12.297
			c5.201,2.612,7.796,4.014,12.96,7.017c-0.277,0.526-0.415,0.79-0.692,1.316c-3.913-2.275-5.877-3.355-9.812-5.404
			c-0.698,1.511-1.046,2.267-1.742,3.779c3.548,1.845,5.315,2.813,8.845,4.846c-0.274,0.528-0.411,0.791-0.686,1.319
			c-3.505-2.018-5.263-2.978-8.786-4.809c-0.801,1.741-1.2,2.611-1.999,4.353c4.001,2.078,5.999,3.178,9.977,5.502
			C396.083,239.558,395.945,239.82,395.669,240.347z"/>
	</g>
</g>
<g>
	<g>
		<path d="M417.315,260.067c-0.889-0.654-1.338-0.978-2.239-1.62c0.79-1.86,1.178-2.795,1.938-4.669
			c-1.704-1.192-2.564-1.777-4.311-2.926c-1.819,1.156-2.726,1.739-4.523,2.916c-0.938-0.605-1.406-0.905-2.355-1.498
			c5.989-3.804,9.047-5.647,15.282-9.205c0.829,0.555,1.24,0.834,2.061,1.398C420.999,250.78,419.826,253.904,417.315,260.067z
			 M417.694,252.098c0.868-2.159,1.295-3.244,2.125-5.42c-0.081-0.055-0.125-0.082-0.206-0.137
			c-2.126,1.297-3.179,1.952-5.277,3.277C415.692,250.716,416.363,251.173,417.694,252.098z"/>
		<path d="M431.382,265.528c-1.041,1.006-2.288,1.437-3.736,1.318c-1.449-0.119-2.898-0.778-4.379-1.967
			c-1.483-1.191-2.354-2.417-2.61-3.708s0.051-2.421,0.941-3.387c0.178-0.193,0.265-0.29,0.442-0.482
			c0.865,0.648,1.296,0.975,2.149,1.634c-0.155,0.164-0.232,0.246-0.388,0.409c-0.646,0.683-0.863,1.419-0.663,2.208
			c0.2,0.79,0.66,1.468,1.378,2.044c0.956,0.768,1.838,1.151,2.659,1.142c0.82-0.01,1.5-0.277,2.036-0.808
			c0.445-0.441,0.595-1.075,0.43-1.9c-0.164-0.824-0.606-1.844-1.353-2.968c-1.047-1.579-1.741-2.875-1.936-3.887
			c-0.194-1.01,0.02-1.861,0.657-2.55c0.894-0.964,2.09-1.393,3.589-1.264c1.497,0.129,2.895,0.708,4.174,1.736
			c1.66,1.333,2.492,2.666,2.511,3.949c0.019,1.283-0.387,2.316-1.199,3.105c-0.838-0.717-1.262-1.071-2.111-1.777
			c0.55-0.437,0.812-1.036,0.774-1.794c-0.037-0.76-0.468-1.475-1.29-2.136c-0.761-0.611-1.509-0.944-2.236-1
			c-0.73-0.056-1.331,0.167-1.806,0.667c-0.389,0.409-0.547,0.898-0.482,1.463c0.064,0.564,0.646,1.62,1.649,3.169
			c0.962,1.485,1.506,2.843,1.661,4S432.104,264.83,431.382,265.528z"/>
		<path d="M442.177,275.601c-1.113,0.939-2.384,1.289-3.806,1.074c-1.424-0.215-2.801-0.972-4.165-2.262
			c-1.366-1.292-2.128-2.578-2.271-3.889s0.251-2.422,1.212-3.331c0.192-0.182,0.29-0.273,0.482-0.455
			c0.8,0.707,1.198,1.064,1.986,1.781c-0.167,0.154-0.25,0.231-0.417,0.385c-0.695,0.641-0.975,1.366-0.843,2.169
			c0.132,0.805,0.53,1.515,1.191,2.14c0.881,0.833,1.72,1.273,2.533,1.318c0.812,0.044,1.508-0.177,2.082-0.673
			c0.478-0.413,0.677-1.04,0.582-1.877c-0.095-0.836-0.446-1.887-1.09-3.063c-0.903-1.65-1.481-2.996-1.589-4.023
			c-0.107-1.025,0.177-1.864,0.864-2.512c0.963-0.906,2.18-1.256,3.649-1.027c1.468,0.229,2.803,0.901,3.981,2.016
			c1.529,1.446,2.243,2.835,2.155,4.122s-0.576,2.296-1.444,3.033c-0.77-0.773-1.158-1.158-1.94-1.921
			c0.58-0.401,0.889-0.984,0.915-1.746c0.026-0.764-0.341-1.509-1.099-2.226c-0.701-0.663-1.413-1.047-2.128-1.151
			c-0.717-0.105-1.33,0.081-1.841,0.549c-0.418,0.384-0.614,0.863-0.598,1.433c0.017,0.57,0.503,1.667,1.366,3.286
			c0.827,1.552,1.253,2.947,1.311,4.116S442.949,274.948,442.177,275.601z"/>
		<path d="M455.107,284.432c-2.409,1.769-4.496,2.613-6.246,2.566c-1.752-0.048-3.25-0.789-4.545-2.227
			c-1.297-1.44-1.832-2.96-1.603-4.6c0.229-1.639,1.473-3.415,3.767-5.312c2.293-1.896,4.34-2.824,6.147-2.755
			c1.806,0.069,3.431,0.877,4.828,2.43c1.396,1.55,1.955,3.166,1.685,4.8C458.87,280.967,457.516,282.664,455.107,284.432z
			 M453.303,282.319c2.131-1.605,3.298-2.924,3.486-3.959c0.188-1.035-0.067-1.945-0.76-2.714c-0.693-0.77-1.625-1.177-2.78-1.216
			c-1.157-0.039-2.771,0.785-4.843,2.455s-3.192,3.038-3.372,4.1c-0.18,1.06,0.054,1.948,0.708,2.675
			c0.652,0.725,1.539,1.08,2.669,1.072C449.541,284.723,451.172,283.924,453.303,282.319z"/>
		<path d="M462.765,297.116c-2.092,1.241-3.892,1.676-5.403,1.33c-1.514-0.347-2.729-1.131-3.67-2.367
			c-1.075-1.411-1.504-2.954-1.285-4.66c0.218-1.707,1.418-3.364,3.639-4.961c2.427-1.746,4.646-2.553,6.659-2.381
			s3.671,1.088,4.927,2.737c1.062,1.394,1.486,2.858,1.275,4.357c-0.21,1.498-1.162,2.724-2.821,3.69
			c-0.594-0.832-0.894-1.247-1.499-2.071c1.174-0.767,1.896-1.564,2.154-2.391s0.053-1.689-0.617-2.569
			c-0.767-1.006-1.821-1.506-3.146-1.495c-1.326,0.011-3.005,0.738-5.038,2.163c-1.877,1.315-2.967,2.521-3.283,3.607
			c-0.316,1.086-0.139,2.068,0.539,2.958c0.497,0.652,1.221,1.061,2.182,1.232c0.96,0.172,2.246-0.259,3.848-1.306
			C461.847,295.836,462.155,296.262,462.765,297.116z"/>
		<path d="M462.408,308.22c-0.547-0.856-0.824-1.283-1.384-2.132c5.637-3.352,8.455-5.025,14.093-8.378
			c0.602,0.913,0.899,1.371,1.487,2.292C470.925,303.29,468.087,304.932,462.408,308.22z"/>
		<path d="M471.996,325.181c-0.469-0.945-0.707-1.415-1.189-2.354c1.557-1.43,2.332-2.15,3.871-3.603
			c-0.921-1.754-1.396-2.626-2.364-4.357c-2.119,0.384-3.176,0.583-5.285,0.995c-0.524-0.918-0.789-1.375-1.327-2.286
			c6.968-1.264,10.478-1.814,17.55-2.754c0.457,0.831,0.686,1.247,1.132,2.082C479.537,317.95,477.059,320.405,471.996,325.181z
			 M476.052,317.921c1.767-1.677,2.646-2.523,4.388-4.23c-0.044-0.082-0.067-0.123-0.112-0.205
			c-2.452,0.398-3.674,0.607-6.114,1.042C474.964,315.878,475.33,316.557,476.052,317.921z"/>
		<path d="M491.002,331.722c-0.71-1.734-1.075-2.597-1.827-4.314c-5.405,2.254-8.105,3.379-13.511,5.633
			c-0.405-0.925-0.61-1.385-1.028-2.304c5.377-2.316,8.064-3.473,13.441-5.79c-0.776-1.707-1.174-2.557-1.991-4.246
			c0.666-0.303,1-0.453,1.666-0.756c2.122,4.382,3.114,6.607,4.956,11.106C492.026,331.32,491.684,331.454,491.002,331.722z"/>
		<path d="M480.793,346.107c-0.332-0.952-0.501-1.426-0.846-2.374c6.21-2.212,9.314-3.318,15.525-5.529
			c0.371,1.02,0.553,1.531,0.91,2.556C490.146,342.899,487.028,343.967,480.793,346.107z"/>
		<path d="M494.107,362.205c-2.931,0.729-5.159,0.722-6.688,0.012c-1.53-0.711-2.526-1.973-3.022-3.805
			c-0.497-1.834-0.281-3.452,0.664-4.89c0.945-1.438,2.851-2.616,5.737-3.508c2.886-0.892,5.112-0.978,6.679-0.226
			c1.564,0.751,2.634,2.123,3.17,4.1c0.535,1.974,0.303,3.69-0.672,5.108C499,360.415,497.037,361.476,494.107,362.205z
			 M493.461,359.552c2.61-0.683,4.236-1.466,4.87-2.359c0.633-0.892,0.816-1.835,0.551-2.814c-0.266-0.98-0.903-1.714-1.907-2.189
			c-1.006-0.478-2.806-0.324-5.394,0.441s-4.198,1.612-4.838,2.531c-0.639,0.918-0.832,1.834-0.581,2.759
			c0.25,0.923,0.872,1.592,1.876,2.015S490.851,360.235,493.461,359.552z"/>
		<path d="M488.689,377.56c-0.171-1.085-0.263-1.627-0.45-2.709c4.272-3.302,6.381-5.013,10.523-8.557
			c-0.01-0.045-0.015-0.069-0.024-0.114c-4.66,1.053-6.989,1.58-11.649,2.633c-0.206-0.988-0.314-1.482-0.534-2.467
			c6.41-1.527,9.618-2.29,16.028-3.816c0.257,1.152,0.381,1.729,0.62,2.885c-4.134,3.591-6.237,5.325-10.503,8.674
			c0.008,0.044,0.01,0.066,0.018,0.111c4.686-0.916,7.03-1.374,11.717-2.289c0.185,1.071,0.274,1.607,0.443,2.681
			C498.402,375.779,495.164,376.373,488.689,377.56z"/>
		<path d="M499.12,405.705c-2.998,0.147-5.144-0.295-6.457-1.299c-1.314-1.005-1.986-2.452-2.047-4.363
			c-0.061-1.915,0.517-3.473,1.758-4.711c1.241-1.238,3.351-2.034,6.343-2.351c2.991-0.317,5.165,0.034,6.507,1.085
			c1.34,1.05,2.06,2.618,2.125,4.681c0.065,2.06-0.555,3.716-1.822,4.929C504.26,404.889,502.116,405.557,499.12,405.705z
			 M499.108,402.947c2.679-0.165,4.428-0.62,5.244-1.38c0.815-0.76,1.209-1.659,1.177-2.68c-0.032-1.023-0.481-1.875-1.343-2.542
			c-0.862-0.67-2.635-0.872-5.311-0.621s-4.424,0.774-5.252,1.561c-0.828,0.784-1.224,1.651-1.193,2.617
			c0.03,0.963,0.478,1.748,1.351,2.364S496.43,403.112,499.108,402.947z"/>
		<path d="M504.814,420.43c0.313-3.887,0.419-5.832,0.535-9.714c-2.142,0.056-3.214,0.083-5.355,0.14
			c-0.086,2.868-0.156,4.304-0.353,7.175c-0.726-0.004-1.086-0.007-1.812-0.011c0.194-2.848,0.263-4.27,0.348-7.114
			c-2.945,0.077-4.418,0.114-7.362,0.191c0.03-1.02,0.043-1.529,0.059-2.548c6.541-0.249,9.813-0.374,16.355-0.622
			c-0.079,5.007-0.197,7.515-0.603,12.532C505.902,420.447,505.539,420.442,504.814,420.43z"/>
		<path d="M485.752,448.447c1.152-4.716,1.645-7.08,2.471-11.822c0.718,0.067,1.077,0.099,1.795,0.166
			c4.395,4.09,6.53,6.236,10.647,10.732c0.803-3.534,1.159-5.306,1.791-8.853c0.718,0.069,1.078,0.104,1.796,0.173
			c-0.832,4.671-1.32,7.003-2.447,11.65c-0.71-0.105-1.065-0.158-1.775-0.264c-4.046-4.55-6.148-6.726-10.479-10.872
			c-0.71,3.751-1.114,5.624-2.026,9.357C486.814,448.608,486.462,448.555,485.752,448.447z"/>
		<path d="M487.082,463.193c-1.895-0.415-3.104-1.214-3.645-2.384c-0.542-1.17-0.556-2.585-0.062-4.263
			c0.451-1.533,1.225-2.734,2.339-3.621c1.115-0.888,2.599-1.188,4.46-0.882c0.409,0.067,0.613,0.098,1.022,0.165
			c-0.271,1.041-0.413,1.563-0.701,2.603c-0.52-0.092-0.777-0.138-1.297-0.229c-1.113-0.196-1.979-0.055-2.598,0.417
			c-0.62,0.472-1.033,1.069-1.25,1.807c-0.303,1.031-0.295,1.852,0.038,2.469c0.332,0.614,1.139,1.06,2.427,1.325
			c4.232,0.872,6.348,1.307,10.58,2.179c-0.339,1.082-0.514,1.621-0.869,2.7C493.348,464.563,491.261,464.108,487.082,463.193z"/>
		<path d="M480.99,477.547c-1.429-0.422-2.362-1.208-2.824-2.35c-0.462-1.144-0.303-2.674,0.446-4.617
			c0.75-1.944,1.689-3.266,2.863-3.97s2.485-0.895,3.945-0.553c4.414,1.034,6.622,1.552,11.037,2.586
			c-0.375,1.076-0.568,1.615-0.96,2.688c-4.396-1.088-6.591-1.633-10.985-2.721c-1.03-0.255-1.893-0.147-2.593,0.314
			c-0.699,0.462-1.228,1.163-1.592,2.107c-0.363,0.942-0.426,1.768-0.179,2.483c0.246,0.714,0.874,1.217,1.892,1.504
			c4.343,1.224,6.513,1.833,10.856,3.056c-0.434,1.065-0.654,1.598-1.104,2.66C487.471,479.461,485.312,478.823,480.99,477.547z"/>
	</g>
</g>
<g>
	<g>
		<path d="M161.97,586.166c1.073-1.102,2.639-1.656,4.668-1.716c2.027-0.06,4.818-0.442,8.294-1.233
			c3.474-0.791,5.869-1.64,7.262-2.435c1.391-0.794,2.301-1.656,2.754-2.564c0.452-0.906,0.509-1.86,0.179-2.848
			c-0.331-0.989-0.99-1.74-1.982-2.274s-2.125-0.808-3.406-0.826c-1.284-0.019-2.596,0.365-3.938,1.155
			c-0.908-0.86-1.358-1.296-2.251-2.171c2.213-1.275,4.19-1.947,5.948-2.016c1.755-0.068,3.402,0.396,4.935,1.254
			c0.904,0.506,1.705,1.027,2.319,1.602c0.613,0.572,1.131,1.322,1.564,2.245c0.433,0.921,0.583,1.992,0.449,3.205
			c-0.135,1.215-0.706,2.435-1.734,3.64c-1.03,1.208-2.814,2.313-5.41,3.257c-2.599,0.945-7.183,2.12-14.019,3.082
			c4.263,2.919,6.43,4.307,10.822,6.937c-0.617,0.9-0.926,1.35-1.543,2.25c-6.248-3.741-9.315-5.754-15.302-10.072
			C161.735,586.449,161.814,586.354,161.97,586.166z"/>
		<path d="M188.517,586.788c1.557-2.182,3.071-3.756,4.523-4.73c1.45-0.973,2.993-1.583,4.623-1.843
			c1.628-0.259,3.228,0.021,4.834,0.843c1.603,0.819,2.649,2.146,3.17,4.008s0.481,3.863-0.156,5.996
			c-0.637,2.136-1.678,4.443-3.154,6.909c-1.477,2.466-3.08,4.298-4.824,5.471c-1.746,1.175-3.709,1.632-5.866,1.346
			c-2.161-0.286-3.942-1.288-5.286-2.969c-1.345-1.684-1.986-3.34-1.944-4.93c0.042-1.589,0.345-3.125,0.899-4.607
			C185.893,590.8,186.959,588.971,188.517,586.788z M192.043,587.723c-1.762,2.193-2.989,4.333-3.631,6.445
			c-0.643,2.115-0.604,3.883,0.12,5.289c0.724,1.404,1.874,2.197,3.406,2.351c1.532,0.154,2.992-0.363,4.361-1.538
			s2.514-2.635,3.452-4.354s1.716-3.321,2.341-4.803c0.625-1.479,0.89-2.968,0.814-4.458c-0.076-1.488-0.677-2.545-1.814-3.184
			c-1.141-0.641-2.48-0.63-4.05,0.012C195.469,584.125,193.802,585.531,192.043,587.723z"/>
		<path d="M217.107,593.394c-1.801,0.691-3.951,1.176-6.454,1.421c0.494-1.03,0.741-1.544,1.235-2.574
			c3.175-0.504,5.987-1.545,8.428-3.071c0.686,0.263,1.029,0.395,1.716,0.65c-4.007,9.51-6.011,14.265-10.017,23.774
			c-1.324-0.492-1.984-0.747-3.301-1.263C212.071,604.755,213.75,600.97,217.107,593.394z"/>
		<path d="M235.727,615.031c-5.078-1.282-7.602-2.007-12.609-3.614c0.347-0.957,0.521-1.433,0.868-2.39
			c7.584-4.917,11.151-7.553,17.81-13.094c0.883,0.22,1.327,0.325,2.212,0.534c-1.797,6.75-2.696,10.127-4.493,16.877
			c1.565,0.369,2.352,0.548,3.922,0.886c-0.239,0.985-0.358,1.475-0.598,2.46c-1.593-0.343-2.389-0.522-3.976-0.896
			c-0.583,2.192-0.875,3.291-1.458,5.483c-1.295-0.306-1.941-0.463-3.233-0.789C234.794,618.305,235.105,617.215,235.727,615.031z
			 M236.422,612.59c1.293-4.539,1.938-6.807,3.231-11.345c-4.701,3.679-7.16,5.449-12.293,8.833
			C230.966,611.168,232.779,611.67,236.422,612.59z"/>
		<path d="M286.499,613.011c0,0.893,0,1.339,0,2.231c-14.043,0-27.633-1.816-41.415-4.318c0.207-0.871,0.311-1.308,0.518-2.179
			C259.04,611.579,272.766,613.009,286.499,613.011z"/>
		<path d="M327.556,608.712c0.208,0.87,0.312,1.308,0.52,2.178c-13.781,2.515-27.368,4.338-41.413,4.353
			c-0.001-0.893,0-1.339-0.001-2.231C300.395,612.996,314.119,611.555,327.556,608.712z"/>
		<path d="M332.89,621.287c-0.252-1.471,0.217-2.948,1.352-4.441c1.134-1.491,2.461-3.735,3.875-6.733
			c1.414-2.997,2.154-5.26,2.343-6.767c0.188-1.504,0.035-2.706-0.428-3.609c-0.462-0.901-1.194-1.547-2.186-1.938
			c-0.993-0.392-1.988-0.398-3.003-0.026s-1.9,1.01-2.666,1.917c-0.768,0.909-1.226,2.095-1.379,3.561
			c-1.215,0.103-1.821,0.148-3.033,0.231c0.271-2.399,0.884-4.248,1.854-5.552c0.97-1.302,2.303-2.188,3.896-2.742
			c0.937-0.325,1.828-0.565,2.654-0.641c0.824-0.075,1.737,0.028,2.74,0.304c1.001,0.275,1.957,0.847,2.857,1.716
			c0.901,0.869,1.546,2.055,1.904,3.561c0.359,1.509,0.184,3.497-0.604,5.963c-0.788,2.47-2.577,6.507-5.813,12.022
			c4.829-1.198,7.232-1.867,11.999-3.354c0.358,1.017,0.537,1.522,0.896,2.539c-6.782,2.116-10.213,3.03-17.113,4.568
			C332.978,621.633,332.948,621.519,332.89,621.287z"/>
		<path d="M349.115,602.617c-0.831-2.507-1.195-4.597-1.106-6.262c0.089-1.663,0.528-3.163,1.313-4.504
			c0.783-1.34,1.995-2.316,3.66-2.959c1.662-0.642,3.401-0.561,5.261,0.237s3.484,2.089,4.847,3.897
			c1.363,1.811,2.619,4.023,3.729,6.652s1.616,4.953,1.493,6.961c-0.123,2.011-0.974,3.723-2.546,5.104
			c-1.575,1.385-3.498,2.04-5.696,1.945c-2.201-0.095-3.94-0.682-5.21-1.721c-1.269-1.038-2.333-2.232-3.203-3.573
			C350.788,607.057,349.946,605.125,349.115,602.617z M352.019,600.669c0.715,2.662,1.713,4.905,3.045,6.708
			c1.333,1.805,2.802,2.899,4.397,3.267c1.594,0.367,2.951,0.036,4.025-0.977c1.074-1.012,1.555-2.396,1.439-4.133
			s-0.6-3.489-1.432-5.257s-1.668-3.345-2.498-4.734c-0.829-1.388-1.892-2.519-3.165-3.406c-1.272-0.886-2.51-1.118-3.736-0.699
			c-1.229,0.42-2.048,1.39-2.485,2.93C351.171,595.91,351.304,598.01,352.019,600.669z"/>
		<path d="M372.382,586.02c-0.58,1.757-1.551,3.639-2.938,5.623c-0.541-1.01-0.811-1.514-1.352-2.523
			c1.599-2.638,2.534-5.353,2.832-8.105c0.66-0.34,0.99-0.511,1.647-0.857c5.351,8.91,8.025,13.364,13.375,22.274
			c-1.267,0.667-1.901,0.993-3.177,1.638C378.615,596.849,376.537,593.239,372.382,586.02z"/>
		<path d="M394.442,570.528c-4.53,3.17-6.844,4.664-11.539,7.465c-0.615-0.901-0.922-1.354-1.537-2.255
			c5.749-3.429,8.566-5.283,14.061-9.274c0.668,0.795,1.001,1.191,1.669,1.986c0.889,8.887,2.535,16.992,5.618,24.151
			c-1.338,0.868-2.011,1.294-3.36,2.135C396.725,587.334,395.276,579.221,394.442,570.528z"/>
	</g>
</g>
<g>
	<path d="M214.219,435.768c0,0,3.151,0.032,7.862,0.207c2.357,0.075,5.107,0.156,8.047,0.304c2.943,0.114,6.072,0.325,9.205,0.507
		c1.566,0.092,3.138,0.139,4.687,0.172c1.549,0.024,3.069,0.092,4.529,0.247c2.915,0.349,5.59,1.031,7.872,1.705
		c1.141,0.339,2.181,0.694,3.098,1.047c0.918,0.349,1.715,0.676,2.368,0.979c1.306,0.595,2.04,1.036,2.04,1.036l-0.074,0.596
		c0,0-0.82,0.247-2.232,0.503c-0.707,0.133-1.56,0.255-2.535,0.367c-0.976,0.116-2.072,0.205-3.261,0.253
		c-2.377,0.092-5.139,0.097-8.049-0.282c-1.453-0.208-2.943-0.517-4.451-0.873c-1.509-0.349-3.044-0.689-4.585-0.985
		c-3.081-0.594-6.166-1.158-9.047-1.771c-2.885-0.579-5.571-1.177-7.875-1.683c-4.609-0.988-7.671-1.731-7.671-1.731
		L214.219,435.768z"/>
</g>
<g>
	<path d="M214.574,465.067c0,0,3.015-1.284,7.573-3.09c2.276-0.913,4.929-1.986,7.789-3.077c2.851-1.124,5.917-2.235,8.975-3.376
		c1.529-0.569,3.045-1.182,4.534-1.798c1.486-0.624,2.961-1.196,4.416-1.663c2.918-0.897,5.747-1.39,8.197-1.727
		c1.226-0.166,2.362-0.275,3.381-0.337c1.017-0.063,1.911-0.098,2.656-0.094c1.488-0.001,2.368,0.096,2.368,0.096l0.174,0.574
		c0,0-0.68,0.567-1.919,1.39c-0.619,0.417-1.382,0.883-2.265,1.393c-0.881,0.513-1.889,1.051-3.001,1.591
		c-2.227,1.075-4.855,2.23-7.783,3.099c-1.47,0.416-3.015,0.756-4.598,1.06c-1.581,0.311-3.183,0.64-4.771,1.012
		c-3.178,0.743-6.348,1.515-9.343,2.156c-2.986,0.675-5.79,1.249-8.191,1.748c-4.795,1.02-8.018,1.618-8.017,1.618L214.574,465.067z
		"/>
</g>
<g>
	<path d="M360.619,433.262c0-0.001-3.063,0.742-7.671,1.73c-2.304,0.506-4.989,1.104-7.875,1.684
		c-2.882,0.613-5.966,1.177-9.047,1.771c-1.541,0.296-3.076,0.638-4.585,0.985c-1.509,0.357-2.998,0.666-4.451,0.873
		c-2.91,0.379-5.672,0.375-8.05,0.283c-1.188-0.049-2.284-0.137-3.26-0.254c-0.976-0.112-1.829-0.233-2.536-0.367
		c-1.412-0.256-2.231-0.502-2.231-0.502l-0.074-0.596c0,0,0.733-0.441,2.04-1.037c0.652-0.303,1.449-0.629,2.367-0.979
		c0.917-0.353,1.957-0.707,3.098-1.047c2.283-0.673,4.958-1.355,7.872-1.705c1.46-0.154,2.979-0.222,4.529-0.247
		c1.549-0.032,3.121-0.079,4.687-0.171c3.133-0.182,6.261-0.394,9.205-0.507c2.939-0.147,5.689-0.229,8.047-0.304
		c4.71-0.176,7.861-0.207,7.861-0.207L360.619,433.262z"/>
</g>
<g>
	<path d="M360.587,462.643c0,0-3.222-0.6-8.017-1.619c-2.401-0.498-5.205-1.073-8.191-1.748c-2.996-0.641-6.165-1.413-9.343-2.156
		c-1.589-0.371-3.191-0.701-4.771-1.012c-1.583-0.303-3.129-0.643-4.598-1.059c-2.928-0.868-5.556-2.023-7.783-3.1
		c-1.113-0.539-2.12-1.077-3.002-1.59c-0.883-0.51-1.646-0.977-2.264-1.393c-1.24-0.822-1.92-1.391-1.92-1.391l0.174-0.574
		c0,0,0.88-0.096,2.368-0.095c0.745-0.005,1.639,0.029,2.656,0.094c1.018,0.061,2.154,0.17,3.38,0.337
		c2.45,0.337,5.278,0.828,8.197,1.727c1.454,0.467,2.93,1.039,4.416,1.662c1.488,0.616,3.004,1.229,4.533,1.799
		c3.059,1.141,6.125,2.252,8.976,3.375c2.86,1.092,5.514,2.164,7.789,3.078c4.559,1.805,7.573,3.09,7.573,3.09L360.587,462.643z"/>
</g>
</svg>
